<svg width="25" height="24" viewBox="0 0 25 24" fill="none" xmlns="http://www.w3.org/2000/svg">
<g clip-path="url(#clip0_106_7251)">
<path d="M23.5 11C23.2348 11 22.9805 11.1054 22.7929 11.2929C22.6054 11.4804 22.5 11.7348 22.5 12C22.5082 14.3253 21.7084 16.5812 20.2376 18.3822C18.7667 20.1831 16.716 21.4173 14.4359 21.8738C12.1559 22.3303 9.78807 21.9807 7.73721 20.8849C5.68636 19.789 4.07977 18.0148 3.19206 15.8657C2.30435 13.7165 2.19064 11.3257 2.87035 9.10201C3.55006 6.87828 4.98099 4.95966 6.91858 3.67407C8.85616 2.38849 11.1801 1.81575 13.4932 2.05377C15.8062 2.29179 17.9648 3.32578 19.6 4.979C19.5671 4.98797 19.5337 4.99498 19.5 5H16.5C16.2348 5 15.9805 5.10536 15.7929 5.29289C15.6054 5.48043 15.5 5.73478 15.5 6C15.5 6.26522 15.6054 6.51957 15.7929 6.70711C15.9805 6.89464 16.2348 7 16.5 7H19.5C20.2957 7 21.0587 6.68393 21.6213 6.12132C22.184 5.55871 22.5 4.79565 22.5 4V1C22.5 0.734784 22.3947 0.48043 22.2071 0.292893C22.0196 0.105357 21.7652 0 21.5 0C21.2348 0 20.9805 0.105357 20.7929 0.292893C20.6054 0.48043 20.5 0.734784 20.5 1V3.065C18.4526 1.23453 15.8389 0.162166 13.0959 0.0271026C10.3528 -0.107961 7.64648 0.702457 5.42911 2.32293C3.21174 3.94341 1.61766 6.27578 0.913253 8.9303C0.208844 11.5848 0.436772 14.4007 1.55895 16.9074C2.68113 19.414 4.62958 21.4596 7.07871 22.7024C9.52784 23.9451 12.3293 24.3097 15.0149 23.7353C17.7006 23.1608 20.1077 21.682 21.8341 19.5461C23.5605 17.4101 24.5015 14.7464 24.5 12C24.5 11.7348 24.3947 11.4804 24.2071 11.2929C24.0196 11.1054 23.7652 11 23.5 11Z" fill="#22BCFF"/>
<path d="M12.5002 6C12.235 6 11.9806 6.10536 11.7931 6.29289C11.6055 6.48043 11.5002 6.73478 11.5002 7V12C11.5002 12.2652 11.6056 12.5195 11.7932 12.707L14.7932 15.707C14.9818 15.8892 15.2344 15.99 15.4966 15.9877C15.7588 15.9854 16.0096 15.8802 16.195 15.6948C16.3804 15.5094 16.4856 15.2586 16.4879 14.9964C16.4901 14.7342 16.3893 14.4816 16.2072 14.293L13.5002 11.586V7C13.5002 6.73478 13.3948 6.48043 13.2073 6.29289C13.0198 6.10536 12.7654 6 12.5002 6Z" fill="#22BCFF"/>
</g>
<defs>
<clipPath id="clip0_106_7251">
<rect width="24" height="24" fill="white" transform="translate(0.5)"/>
</clipPath>
</defs>
</svg>
