<svg width="61" height="60" viewBox="0 0 61 60" fill="none" xmlns="http://www.w3.org/2000/svg">
<rect x="0.5" width="60" height="60" rx="30" fill="url(#paint0_linear_168_557)"/>
<g clip-path="url(#clip0_168_557)">
<path d="M40.5833 29.0833H31.4167V19.9167C31.4167 19.6736 31.3201 19.4404 31.1482 19.2685C30.9763 19.0966 30.7431 19 30.5 19V19C30.2569 19 30.0237 19.0966 29.8518 19.2685C29.6799 19.4404 29.5833 19.6736 29.5833 19.9167V29.0833H20.4167C20.1736 29.0833 19.9404 29.1799 19.7685 29.3518C19.5966 29.5237 19.5 29.7569 19.5 30V30C19.5 30.2431 19.5966 30.4763 19.7685 30.6482C19.9404 30.8201 20.1736 30.9167 20.4167 30.9167H29.5833V40.0833C29.5833 40.3264 29.6799 40.5596 29.8518 40.7315C30.0237 40.9034 30.2569 41 30.5 41C30.7431 41 30.9763 40.9034 31.1482 40.7315C31.3201 40.5596 31.4167 40.3264 31.4167 40.0833V30.9167H40.5833C40.8264 30.9167 41.0596 30.8201 41.2315 30.6482C41.4034 30.4763 41.5 30.2431 41.5 30C41.5 29.7569 41.4034 29.5237 41.2315 29.3518C41.0596 29.1799 40.8264 29.0833 40.5833 29.0833Z" fill="#FCFEFF"/>
</g>
<defs>
<linearGradient id="paint0_linear_168_557" x1="0.5" y1="6.92309" x2="61.4964" y2="8.09398" gradientUnits="userSpaceOnUse">
<stop stop-color="#8CDCFF"/>
<stop offset="1" stop-color="#22BCFF"/>
</linearGradient>
<clipPath id="clip0_168_557">
<rect width="22" height="22" fill="white" transform="translate(19.5 19)"/>
</clipPath>
</defs>
</svg>
