<svg width="36" height="36" viewBox="0 0 36 36" fill="none" xmlns="http://www.w3.org/2000/svg">
<path d="M22.1879 28C22.0817 28.0006 21.9764 27.9796 21.878 27.9381C21.7797 27.8967 21.6902 27.8356 21.6148 27.7584L15.0191 20.9512C14.6432 20.5642 14.345 20.1045 14.1415 19.5984C13.938 19.0922 13.8333 18.5497 13.8333 18.0017C13.8333 17.4537 13.938 16.9111 14.1415 16.405C14.345 15.8989 14.6432 15.4392 15.0191 15.0522L21.6148 8.24503C21.69 8.16735 21.7794 8.10573 21.8777 8.06368C21.9761 8.02164 22.0815 8 22.1879 8C22.2944 8 22.3998 8.02164 22.4981 8.06368C22.5965 8.10573 22.6858 8.16735 22.7611 8.24503C22.8364 8.32272 22.8961 8.41495 22.9368 8.51645C22.9776 8.61795 22.9985 8.72674 22.9985 8.8366C22.9985 8.94646 22.9776 9.05525 22.9368 9.15675C22.8961 9.25825 22.8364 9.35048 22.7611 9.42817L16.1655 16.2353C15.7119 16.704 15.4572 17.3393 15.4572 18.0017C15.4572 18.6641 15.7119 19.2994 16.1655 19.7681L22.7611 26.5752C22.8368 26.6527 22.8968 26.7448 22.9378 26.8464C22.9788 26.9479 22.9999 27.0568 22.9999 27.1668C22.9999 27.2768 22.9788 27.3857 22.9378 27.4872C22.8968 27.5888 22.8368 27.6809 22.7611 27.7584C22.6857 27.8356 22.5962 27.8967 22.4979 27.9381C22.3995 27.9796 22.2942 28.0006 22.1879 28Z" fill="#242A2D"/>
</svg>
