<svg width="49" height="48" viewBox="0 0 49 48" fill="none" xmlns="http://www.w3.org/2000/svg">
<g clip-path="url(#clip0_141_560)">
<path d="M31.1667 16.6667H30.1583C29.9456 15.6321 29.3827 14.7026 28.5645 14.0347C27.7463 13.3667 26.7229 13.0013 25.6667 13L23.8333 13C22.7771 13.0013 21.7537 13.3667 20.9355 14.0347C20.1173 14.7026 19.5544 15.6321 19.3417 16.6667H18.3333C17.1182 16.6681 15.9533 17.1515 15.094 18.0107C14.2348 18.8699 13.7515 20.0349 13.75 21.25V30.4167C13.7515 31.6318 14.2348 32.7967 15.094 33.656C15.9533 34.5152 17.1182 34.9985 18.3333 35H31.1667C32.3818 34.9985 33.5467 34.5152 34.406 33.656C35.2652 32.7967 35.7485 31.6318 35.75 30.4167V21.25C35.7485 20.0349 35.2652 18.8699 34.406 18.0107C33.5467 17.1515 32.3818 16.6681 31.1667 16.6667ZM23.8333 14.8333H25.6667C26.2334 14.8357 26.7856 15.0131 27.2476 15.3412C27.7097 15.6694 28.0591 16.1323 28.248 16.6667H21.252C21.4409 16.1323 21.7903 15.6694 22.2524 15.3412C22.7144 15.0131 23.2666 14.8357 23.8333 14.8333ZM18.3333 18.5H31.1667C31.896 18.5 32.5955 18.7897 33.1112 19.3055C33.6269 19.8212 33.9167 20.5207 33.9167 21.25V24H15.5833V21.25C15.5833 20.5207 15.8731 19.8212 16.3888 19.3055C16.9045 18.7897 17.604 18.5 18.3333 18.5ZM31.1667 33.1667H18.3333C17.604 33.1667 16.9045 32.8769 16.3888 32.3612C15.8731 31.8455 15.5833 31.146 15.5833 30.4167V25.8333H23.8333V26.75C23.8333 26.9931 23.9299 27.2263 24.1018 27.3982C24.2737 27.5701 24.5069 27.6667 24.75 27.6667C24.9931 27.6667 25.2263 27.5701 25.3982 27.3982C25.5701 27.2263 25.6667 26.9931 25.6667 26.75V25.8333H33.9167V30.4167C33.9167 31.146 33.6269 31.8455 33.1112 32.3612C32.5955 32.8769 31.896 33.1667 31.1667 33.1667Z" fill="#738B96"/>
</g>
<defs>
<clipPath id="clip0_141_560">
<rect width="22" height="22" fill="white" transform="translate(13.75 13)"/>
</clipPath>
</defs>
</svg>
