<svg width="20" height="20" viewBox="0 0 20 20" fill="none" xmlns="http://www.w3.org/2000/svg">
<g clip-path="url(#clip0_68_8)">
<path d="M19.0121 11.3818L17.4108 5.6858C16.9414 4.0171 15.9213 2.55139 14.5126 1.52166C13.104 0.491935 11.3875 -0.0427253 9.63622 0.00266955C7.88489 0.0480644 6.19917 0.67091 4.847 1.7722C3.49484 2.87349 2.55382 4.39003 2.17354 6.08075L0.933758 11.5926C0.796814 12.2017 0.79998 12.8333 0.943023 13.441C1.08607 14.0487 1.36533 14.6168 1.76021 15.1035C2.15508 15.5902 2.65548 15.983 3.22446 16.2529C3.79343 16.5228 4.41646 16.6629 5.04754 16.6629H5.98644C6.17987 17.6047 6.6967 18.4514 7.44935 19.0596C8.20199 19.6678 9.14416 20 10.1162 20C11.0883 20 12.0305 19.6678 12.7831 19.0596C13.5358 18.4514 14.0526 17.6047 14.246 16.6629H14.9523C15.602 16.6629 16.2428 16.5145 16.8248 16.2291C17.4068 15.9438 17.9143 15.5293 18.3074 15.0179C18.7006 14.5066 18.9688 13.9124 19.0912 13.2816C19.2136 12.6509 19.1868 12.0007 19.013 11.3818H19.0121ZM10.1162 18.3293C9.59515 18.3272 9.08747 18.166 8.66263 17.8677C8.23779 17.5694 7.91655 17.1486 7.74286 16.6629H12.4896C12.3159 17.1486 11.9947 17.5694 11.5698 17.8677C11.145 18.166 10.6373 18.3272 10.1162 18.3293V18.3293ZM16.9649 14.009C16.7301 14.317 16.4258 14.5667 16.0763 14.7381C15.7268 14.9095 15.3416 14.9979 14.9515 14.9964H5.04754C4.66893 14.9963 4.29518 14.9122 3.95385 14.7502C3.61253 14.5883 3.31236 14.3526 3.07549 14.0606C2.83862 13.7686 2.6711 13.4277 2.58531 13.0632C2.49951 12.6986 2.49762 12.3196 2.57978 11.9542L3.81871 6.44154C4.11737 5.11353 4.85648 3.92233 5.91855 3.0573C6.98062 2.19228 8.3047 1.70306 9.6803 1.66743C11.0559 1.63181 12.4041 2.05181 13.5105 2.86068C14.6169 3.66954 15.4181 4.82085 15.7867 6.13158L17.388 11.8276C17.4939 12.1987 17.5107 12.5891 17.4373 12.9677C17.3638 13.3464 17.2021 13.7029 16.9649 14.009V14.009Z" fill="#242A2D"/>
</g>
<defs>
<clipPath id="clip0_68_8">
<rect width="20" height="20" fill="white"/>
</clipPath>
</defs>
</svg>
