<svg width="23" height="22" viewBox="0 0 23 22" fill="none" xmlns="http://www.w3.org/2000/svg">
<g clip-path="url(#clip0_168_561)">
<path d="M18.1667 3.66667H17.1583C16.9456 2.63213 16.3827 1.70257 15.5645 1.03466C14.7463 0.366749 13.7229 0.00133331 12.6667 0L10.8333 0C9.77715 0.00133331 8.75371 0.366749 7.93552 1.03466C7.11733 1.70257 6.55442 2.63213 6.34167 3.66667H5.33333C4.1182 3.66812 2.95326 4.15148 2.09403 5.0107C1.23481 5.86993 0.751456 7.03487 0.75 8.25L0.75 17.4167C0.751456 18.6318 1.23481 19.7967 2.09403 20.656C2.95326 21.5152 4.1182 21.9985 5.33333 22H18.1667C19.3818 21.9985 20.5467 21.5152 21.406 20.656C22.2652 19.7967 22.7485 18.6318 22.75 17.4167V8.25C22.7485 7.03487 22.2652 5.86993 21.406 5.0107C20.5467 4.15148 19.3818 3.66812 18.1667 3.66667ZM10.8333 1.83333H12.6667C13.2334 1.83568 13.7856 2.01308 14.2476 2.34125C14.7097 2.66942 15.0591 3.13233 15.248 3.66667H8.252C8.44091 3.13233 8.7903 2.66942 9.25236 2.34125C9.71442 2.01308 10.2666 1.83568 10.8333 1.83333ZM5.33333 5.5H18.1667C18.896 5.5 19.5955 5.78973 20.1112 6.30546C20.6269 6.82118 20.9167 7.52065 20.9167 8.25V11H2.58333V8.25C2.58333 7.52065 2.87306 6.82118 3.38879 6.30546C3.90451 5.78973 4.60399 5.5 5.33333 5.5ZM18.1667 20.1667H5.33333C4.60399 20.1667 3.90451 19.8769 3.38879 19.3612C2.87306 18.8455 2.58333 18.146 2.58333 17.4167V12.8333H10.8333V13.75C10.8333 13.9931 10.9299 14.2263 11.1018 14.3982C11.2737 14.5701 11.5069 14.6667 11.75 14.6667C11.9931 14.6667 12.2263 14.5701 12.3982 14.3982C12.5701 14.2263 12.6667 13.9931 12.6667 13.75V12.8333H20.9167V17.4167C20.9167 18.146 20.6269 18.8455 20.1112 19.3612C19.5955 19.8769 18.896 20.1667 18.1667 20.1667Z" fill="#738B96"/>
</g>
<defs>
<clipPath id="clip0_168_561">
<rect width="22" height="22" fill="white" transform="translate(0.75)"/>
</clipPath>
</defs>
</svg>
