<svg width="48" height="48" viewBox="0 0 48 48" fill="none" xmlns="http://www.w3.org/2000/svg">
<g clip-path="url(#clip0_168_563)">
<path d="M34.9998 23.3103C34.8672 21.1653 34.1099 19.106 32.8211 17.3862C31.5323 15.6665 29.7684 14.3615 27.7469 13.6321C25.7254 12.9027 23.5346 12.7808 21.4447 13.2815C19.3547 13.7821 17.457 14.8834 15.9854 16.4496C14.5137 18.0158 13.5326 19.9783 13.1629 22.0954C12.7932 24.2124 13.0511 26.3914 13.9049 28.3636C14.7586 30.3358 16.1708 32.0151 17.9673 33.1945C19.7639 34.3738 21.8663 35.0016 24.0154 35.0005H30.4165C31.6317 34.9993 32.7968 34.516 33.656 33.6568C34.5153 32.7975 34.9986 31.6324 34.9998 30.4172V23.3103ZM33.1665 30.4172C33.1665 31.1465 32.8768 31.846 32.361 32.3617C31.8453 32.8775 31.1458 33.1672 30.4165 33.1672H24.0154C22.7219 33.1666 21.4431 32.8934 20.2623 32.3654C19.0815 31.8374 18.0252 31.0664 17.1624 30.1028C16.2954 29.1396 15.6443 28.0022 15.2529 26.7668C14.8614 25.5314 14.7386 24.2267 14.8927 22.9399C15.136 20.9104 16.0479 19.0195 17.4846 17.5654C18.9212 16.1114 20.8009 15.1768 22.8274 14.909C23.2227 14.8595 23.6207 14.8344 24.0191 14.8338C26.1553 14.828 28.2255 15.5744 29.8665 16.9422C30.8249 17.7387 31.6115 18.7216 32.1788 19.8312C32.746 20.9408 33.0821 22.154 33.1665 23.3974V30.4172Z" fill="#738B96"/>
<path d="M20.3332 21.2503H23.9998C24.243 21.2503 24.4761 21.1537 24.648 20.9818C24.8199 20.8099 24.9165 20.5768 24.9165 20.3337C24.9165 20.0905 24.8199 19.8574 24.648 19.6855C24.4761 19.5136 24.243 19.417 23.9998 19.417H20.3332C20.0901 19.417 19.8569 19.5136 19.685 19.6855C19.5131 19.8574 19.4165 20.0905 19.4165 20.3337C19.4165 20.5768 19.5131 20.8099 19.685 20.9818C19.8569 21.1537 20.0901 21.2503 20.3332 21.2503Z" fill="#738B96"/>
<path d="M27.6665 23.083H20.3332C20.0901 23.083 19.8569 23.1796 19.685 23.3515C19.5131 23.5234 19.4165 23.7566 19.4165 23.9997C19.4165 24.2428 19.5131 24.476 19.685 24.6479C19.8569 24.8198 20.0901 24.9164 20.3332 24.9164H27.6665C27.9096 24.9164 28.1428 24.8198 28.3147 24.6479C28.4866 24.476 28.5832 24.2428 28.5832 23.9997C28.5832 23.7566 28.4866 23.5234 28.3147 23.3515C28.1428 23.1796 27.9096 23.083 27.6665 23.083Z" fill="#738B96"/>
<path d="M27.6665 26.75H20.3332C20.0901 26.75 19.8569 26.8466 19.685 27.0185C19.5131 27.1904 19.4165 27.4236 19.4165 27.6667C19.4165 27.9098 19.5131 28.1429 19.685 28.3149C19.8569 28.4868 20.0901 28.5833 20.3332 28.5833H27.6665C27.9096 28.5833 28.1428 28.4868 28.3147 28.3149C28.4866 28.1429 28.5832 27.9098 28.5832 27.6667C28.5832 27.4236 28.4866 27.1904 28.3147 27.0185C28.1428 26.8466 27.9096 26.75 27.6665 26.75Z" fill="#738B96"/>
</g>
<defs>
<clipPath id="clip0_168_563">
<rect width="22" height="22" fill="white" transform="translate(13 13)"/>
</clipPath>
</defs>
</svg>
