<svg width="57" height="56" viewBox="0 0 57 56" fill="none" xmlns="http://www.w3.org/2000/svg">
<path opacity="0.1" d="M47.6961 20.7814C47.6961 32.2592 39.1465 41.5628 28.5989 41.5628C18.0513 41.5628 9.50171 32.2592 9.50171 20.7814C9.50171 9.30363 18.0513 0 28.5989 0C39.1465 0 47.6961 9.30363 47.6961 20.7814Z" fill="#22BCFF"/>
<path opacity="0.1" d="M27.9036 23.6072C29.0509 23.6072 29.981 22.5951 29.981 21.3465C29.981 20.098 29.0509 19.0859 27.9036 19.0859C26.7563 19.0859 25.8262 20.098 25.8262 21.3465C25.8262 22.5951 26.7563 23.6072 27.9036 23.6072Z" fill="#22BCFF"/>
<path d="M45.528 17.9184L46.7119 15.5625L47.8957 17.9184L50.0607 19.2067L47.8957 20.4949L46.7119 22.8508L45.528 20.4949L43.363 19.2067L45.528 17.9184Z" fill="#22BCFF"/>
<path opacity="0.1" d="M9.29901 25.9575L10.4829 23.6016L11.6667 25.9575L13.8317 27.2457L11.6667 28.534L10.4829 30.8899L9.29901 28.534L7.13403 27.2457L9.29901 25.9575Z" fill="#22BCFF"/>
<path opacity="0.1" d="M19.5952 11.1484V29.6286H23.2878C23.2878 29.6286 23.8035 17.295 19.5952 11.1484Z" fill="#22BCFF"/>
<path d="M16.8259 8.53906V29.6328H19.5958V11.1526C18.8368 10.0444 17.9238 9.13554 16.8259 8.53906Z" fill="#22BCFF"/>
<path opacity="0.1" d="M35.5211 29.6328V22.1663C35.5292 20.9927 34.8627 19.9392 33.854 19.528C31.9144 18.7603 30.6738 16.6603 30.6738 14.1897C30.6738 11.0697 32.9977 8.53906 35.8665 8.53906C38.7353 8.53906 41.0592 11.0679 41.0592 14.1897C41.0592 14.1897 38.9818 10.7997 35.5211 11.5532C35.5211 11.5532 33.4437 11.5532 33.4437 14.5674C33.4437 16.828 35.5211 17.5815 35.5211 17.5815C35.5211 17.5815 38.291 18.335 38.291 21.3474V29.6346" fill="#22BCFF"/>
<path d="M25.8257 32.4581C25.8257 30.8981 24.6629 29.6328 23.2293 29.6328H17.3442C15.9106 29.6328 14.7478 30.8981 14.7478 32.4581V37.92C22.3633 36.7358 25.8241 32.4581 25.8241 32.4581H25.8257Z" fill="#22BCFF"/>
<path d="M14.7515 49.9696V52.4173C14.7515 53.9773 15.9142 55.2426 17.3478 55.2426H23.233C24.6666 55.2426 25.8293 53.9773 25.8293 52.4173V44.5078C25.8293 44.5078 22.3686 48.7855 14.7531 49.9696H14.7515Z" fill="#22BCFF"/>
<path d="M14.7515 37.9149V43.9415C22.367 42.7574 25.8277 38.4797 25.8277 38.4797V32.4531C25.8277 32.4531 22.367 36.7308 14.7515 37.9149Z" fill="#22BCFF"/>
<path d="M14.7515 43.9462V49.9727C22.367 48.7886 25.8277 44.5109 25.8277 44.5109V38.4844C25.8277 38.4844 22.367 42.7621 14.7515 43.9462Z" fill="#22BCFF"/>
<path d="M42.4431 32.4581C42.4431 30.8981 41.2803 29.6328 39.8468 29.6328H33.9616C32.528 29.6328 31.3652 30.8981 31.3652 32.4581V37.92C38.9808 36.7358 42.4415 32.4581 42.4415 32.4581H42.4431Z" fill="#22BCFF"/>
<path d="M31.3652 49.9696V52.4173C31.3652 53.9773 32.528 55.2426 33.9616 55.2426H39.8468C41.2803 55.2426 42.4431 53.9773 42.4431 52.4173V44.5078C42.4431 44.5078 38.9824 48.7855 31.3669 49.9696H31.3652Z" fill="#22BCFF"/>
<path d="M31.3652 43.9462V49.9727C38.9808 48.7886 42.4415 44.5109 42.4415 44.5109V38.4844C42.4415 38.4844 38.9808 42.7621 31.3652 43.9462Z" fill="#22BCFF"/>
<path d="M31.3652 37.9149V43.9415C38.9808 42.7574 42.4415 38.4797 42.4415 38.4797V32.4531C42.4415 32.4531 38.9808 36.7308 31.3652 37.9149Z" fill="#22BCFF"/>
<path opacity="0.3" d="M19.5971 29.6328H17.3478C15.9142 29.6328 14.7515 30.8981 14.7515 32.4581V52.4225C14.7515 53.9825 15.9142 55.2478 17.3478 55.2478H19.5971V29.6328Z" fill="#FAFCFC"/>
<path opacity="0.3" d="M36.2109 29.6328H33.9616C32.528 29.6328 31.3652 30.8981 31.3652 32.4581V52.4225C31.3652 53.9825 32.528 55.2478 33.9616 55.2478H36.2109V29.6328Z" fill="#FAFCFC"/>
<path d="M27.9044 24.3564C29.4337 24.3564 30.6743 23.0064 30.6743 21.3423C30.6743 19.6781 29.4337 18.3281 27.9044 18.3281C26.3751 18.3281 25.1345 19.6781 25.1345 21.3423C25.1361 23.0064 26.3751 24.3529 27.9044 24.3564ZM27.9044 19.837C28.6698 19.837 29.2893 20.5111 29.2893 21.344C29.2893 22.177 28.6698 22.8511 27.9044 22.8511C27.1389 22.8511 26.5195 22.177 26.5195 21.344C26.5195 20.5129 27.1389 19.8387 27.9044 19.837Z" fill="#22BCFF"/>
<path d="M43.0285 19.8708L45.0151 21.0532L46.1017 23.215C46.2849 23.5802 46.7066 23.7144 47.0406 23.515C47.1574 23.4461 47.2515 23.342 47.3163 23.215L48.4029 21.0532L50.3895 19.8708C50.7251 19.6714 50.8484 19.2126 50.6651 18.849C50.6019 18.722 50.5062 18.6196 50.3895 18.549L48.4029 17.3667L47.3163 15.2049C47.1331 14.8396 46.7114 14.7054 46.3774 14.9049C46.2606 14.9737 46.1665 15.0778 46.1017 15.2049L45.0151 17.3667L43.0285 18.549C42.6928 18.7484 42.5696 19.2073 42.7528 19.5708C42.8161 19.6979 42.9118 19.8002 43.0285 19.8708ZM45.8568 18.5825C45.9736 18.5137 46.0692 18.4096 46.1325 18.2825L46.7082 17.1355L47.2839 18.2825C47.3471 18.4096 47.4428 18.5137 47.5596 18.5825L48.6137 19.209L47.5596 19.8355C47.4428 19.9043 47.3471 20.0084 47.2839 20.1355L46.7082 21.2826L46.1325 20.1355C46.0692 20.0084 45.9736 19.9043 45.8568 19.8355L44.8027 19.209L45.8568 18.5825Z" fill="#22BCFF"/>
<path d="M6.80319 27.9099L8.78978 29.0922L9.87633 31.254C10.0596 31.6193 10.4812 31.7534 10.8153 31.554C10.9321 31.4852 11.0261 31.3811 11.091 31.254L12.1775 29.0922L14.1641 27.9099C14.4998 27.7104 14.6231 27.2516 14.4398 26.8881C14.3766 26.761 14.2809 26.6587 14.1641 26.5881L12.1775 25.4057L11.091 23.2439C10.9077 22.8786 10.4861 22.7445 10.152 22.9439C10.0353 23.0127 9.94119 23.1169 9.87633 23.2439L8.78978 25.4057L6.80319 26.5881C6.4675 26.7875 6.34425 27.2463 6.5275 27.6099C6.59075 27.7369 6.68643 27.8393 6.80319 27.9099ZM9.63145 26.6216C9.74821 26.5528 9.84389 26.4487 9.90714 26.3216L10.4828 25.1745L11.0585 26.3216C11.1218 26.4487 11.2175 26.5528 11.3342 26.6216L12.3883 27.2481L11.3342 27.8746C11.2175 27.9434 11.1218 28.0475 11.0585 28.1746L10.4828 29.3216L9.90714 28.1746C9.84389 28.0475 9.74821 27.9434 9.63145 27.8746L8.57734 27.2481L9.63145 26.6216Z" fill="#22BCFF"/>
<path d="M11.9817 15.3203H13.3666V16.8274H11.9817V15.3203Z" fill="#22BCFF"/>
<path d="M25.8262 8.53906H27.2111V10.0461H25.8262V8.53906Z" fill="#22BCFF"/>
<path d="M42.4436 25.1094H43.8285V26.6164H42.4436V25.1094Z" fill="#22BCFF"/>
<path d="M14.0598 32.4556V52.4199C14.0614 54.3946 15.5323 55.9952 17.3486 55.9988H23.2338C25.0485 55.997 26.5194 54.3964 26.5226 52.4199V32.4556C26.521 30.802 25.4782 29.3638 24.0009 28.9755C24.0349 26.1132 23.8468 23.2543 23.4365 20.4255C23.01 17.5772 22.3565 15.1313 21.4937 13.1548C20.3845 10.6101 18.9184 8.82769 17.1394 7.86062C16.7973 7.67532 16.3821 7.82532 16.2102 8.19768C16.1615 8.3018 16.1372 8.41827 16.1372 8.53474V29.1273C14.8853 29.6691 14.0614 30.9856 14.0598 32.4538V32.4556ZM15.4448 44.5898C20.4007 43.6951 23.5565 41.5474 25.1377 40.1815V44.2034C24.4047 44.9622 23.5971 45.6275 22.7278 46.1922C20.185 47.881 17.48 48.6963 15.4448 49.0881V44.5898ZM25.1377 38.1768C24.4047 38.9357 23.5971 39.601 22.7278 40.1657C20.185 41.8545 17.48 42.6698 15.4448 43.0616V38.5633C20.4007 37.6686 23.5565 35.5209 25.1377 34.155V38.1768ZM23.2338 54.4899H17.3486C16.2978 54.4899 15.4464 53.5617 15.4448 52.4181V50.6146C20.4007 49.7199 23.5565 47.5722 25.1377 46.2063V52.4164C25.1377 53.5599 24.2847 54.4864 23.2338 54.4882V54.4899ZM22.6143 28.8767H20.2904V13.9013C22.5219 19.1143 22.637 26.5543 22.6143 28.8767ZM17.5222 9.89181C18.0411 10.3277 18.5049 10.8342 18.9071 11.3971V28.8767H17.5222V9.89181ZM17.3486 30.3838H23.2338C24.1841 30.3838 24.9869 31.1462 25.1198 32.1697C24.3917 32.9197 23.5906 33.5797 22.7295 34.1374C20.1866 35.8262 17.4816 36.6415 15.4464 37.0333V32.4556C15.4464 31.312 16.2994 30.3856 17.3503 30.3838H17.3486Z" fill="#22BCFF"/>
<path d="M33.6162 20.2331C34.3509 20.5367 34.8341 21.3079 34.8277 22.1638V28.8768H33.9617C32.147 28.8785 30.6761 30.4791 30.6728 32.4556V52.42C30.6745 54.3947 32.1454 55.9953 33.9617 55.9988H39.8468C41.6615 55.9971 43.1324 54.3965 43.1357 52.42V32.4556C43.134 30.4809 41.6631 28.8803 39.8468 28.8768H38.9808V21.3432C38.9808 18.5214 36.8678 17.1819 35.7212 16.8555C35.5477 16.7849 34.1352 16.1637 34.1352 14.5631C34.1352 12.4719 35.2785 12.3131 35.5234 12.3025C35.5672 12.3025 35.6126 12.2989 35.6547 12.2884C38.6062 11.646 40.4079 14.4854 40.4809 14.6037C40.6934 14.9496 41.1231 15.0431 41.441 14.8119C41.634 14.6725 41.7491 14.4378 41.7491 14.1854C41.7491 10.6489 39.1138 7.78125 35.8639 7.78125C32.614 7.78125 29.9788 10.6489 29.9788 14.1854C29.9788 16.9843 31.4059 19.3578 33.6146 20.2314L33.6162 20.2331ZM32.0578 44.5899C37.0121 43.6952 40.1696 41.5475 41.7507 40.1816V44.2034C41.0177 44.9622 40.2101 45.6275 39.3409 46.1922C36.798 47.8811 34.093 48.6964 32.0578 49.0882V44.5899ZM41.7507 38.1769C41.0177 38.9357 40.2101 39.601 39.3409 40.1657C36.798 41.8545 34.093 42.6699 32.0578 43.0616V38.5633C37.0121 37.6686 40.1696 35.521 41.7507 34.1551V38.1769ZM39.8468 54.49H33.9617C32.9108 54.49 32.0594 53.5617 32.0578 52.4182V50.6146C37.0121 49.7199 40.1696 47.5723 41.7507 46.2064V52.4164C41.7507 53.56 40.8977 54.4864 39.8468 54.4882V54.49ZM41.7329 32.1697C41.0047 32.9198 40.2036 33.5798 39.3425 34.1374C36.7997 35.8263 34.0946 36.6416 32.0594 37.0333V32.4556C32.0594 31.3121 32.9124 30.3856 33.9633 30.3838H39.8485C40.7988 30.3838 41.6015 31.1462 41.7345 32.1697H41.7329ZM35.8655 9.29009C37.5067 9.29009 39.0165 10.2625 39.8079 11.8278C38.7554 11.0478 37.2716 10.416 35.4244 10.8042C34.9379 10.8501 32.7503 11.2383 32.7503 14.5649C32.7503 17.3355 35.1958 18.2549 35.3012 18.2937C35.3158 18.299 35.3336 18.3043 35.3498 18.3096C35.4423 18.3361 37.5975 18.9731 37.5975 21.3467V28.8803H36.2126V22.1673C36.2191 20.6779 35.3726 19.342 34.0898 18.8196C32.4356 18.1649 31.3653 16.3472 31.3653 14.189C31.3686 11.4854 33.3811 9.29538 35.8655 9.29185V9.29009Z" fill="#22BCFF"/>
</svg>
