<svg width="48" height="48" viewBox="0 0 48 48" fill="none" xmlns="http://www.w3.org/2000/svg">
<path fill-rule="evenodd" clip-rule="evenodd" d="M23.5429 13.0429C23.9334 12.6524 24.5666 12.6524 24.9571 13.0429L35.4571 23.5429C35.6446 23.7304 35.75 23.9848 35.75 24.25V34.25C35.75 34.8023 35.3023 35.25 34.75 35.25H19.25C18.6977 35.25 18.25 34.8023 18.25 34.25V26.75C18.25 26.4848 18.3554 26.2304 18.5429 26.0429L26.8358 17.75L24.25 15.1642L14.25 25.1642V34.25C14.25 34.8023 13.8023 35.25 13.25 35.25C12.6977 35.25 12.25 34.8023 12.25 34.25V24.751C12.25 24.4858 12.3554 24.2304 12.5429 24.0429L23.5429 13.0429ZM28.25 19.1642L20.25 27.1642V33.25H33.75V24.6642L28.25 19.1642Z" fill="#22BCFF"/>
</svg>
