<svg width="32" height="33" viewBox="0 0 32 33" fill="none" xmlns="http://www.w3.org/2000/svg">
<rect x="0.5" y="1" width="31" height="31" rx="15.5" fill="#FCFEFF"/>
<rect x="0.5" y="1" width="31" height="31" rx="15.5" stroke="#D3E0E6"/>
<g clip-path="url(#clip0_106_7291)">
<path d="M15.9992 17C16.5267 17 17.0422 16.8436 17.4808 16.5506C17.9193 16.2576 18.2611 15.8411 18.4629 15.3538C18.6648 14.8666 18.7176 14.3304 18.6147 13.8131C18.5118 13.2958 18.2578 12.8207 17.8849 12.4477C17.5119 12.0748 17.0368 11.8208 16.5195 11.7179C16.0022 11.615 15.466 11.6678 14.9788 11.8697C14.4915 12.0715 14.075 12.4133 13.782 12.8518C13.489 13.2903 13.3326 13.8059 13.3326 14.3333C13.3326 15.0406 13.6135 15.7189 14.1136 16.219C14.6137 16.719 15.292 17 15.9992 17ZM15.9992 13C16.263 13 16.5207 13.0782 16.74 13.2247C16.9593 13.3712 17.1302 13.5795 17.2311 13.8231C17.332 14.0667 17.3584 14.3348 17.307 14.5935C17.2555 14.8521 17.1285 15.0897 16.9421 15.2761C16.7556 15.4626 16.518 15.5896 16.2594 15.641C16.0007 15.6925 15.7326 15.6661 15.489 15.5652C15.2454 15.4643 15.0371 15.2934 14.8906 15.0741C14.7441 14.8548 14.6659 14.597 14.6659 14.3333C14.6659 13.9797 14.8064 13.6406 15.0564 13.3905C15.3065 13.1405 15.6456 13 15.9992 13ZM21.7726 15.1047L21.2932 14.9453C21.3795 14.1986 21.3069 13.4421 21.0803 12.7254C20.8537 12.0087 20.4781 11.348 19.9782 10.7866C19.4784 10.2252 18.8655 9.77584 18.1797 9.46794C17.494 9.16004 16.7509 9.00058 15.9992 9C15.2377 9.00029 14.4852 9.1638 13.7922 9.47949C13.0992 9.79518 12.482 10.2557 11.982 10.8301C11.482 11.4045 11.111 12.0794 10.8939 12.8092C10.6767 13.5391 10.6185 14.3071 10.7232 15.0613C10.0853 15.1803 9.49533 15.4813 9.02458 15.928C8.69869 16.2378 8.43962 16.611 8.2633 17.0247C8.08697 17.4383 7.99711 17.8837 7.99924 18.3333V21.05C8.00064 21.7709 8.2351 22.472 8.66764 23.0487C9.10017 23.6254 9.70759 24.0468 10.3992 24.25L12.3126 24.85C12.634 24.95 12.9687 25.0006 13.3052 25C13.6106 24.9996 13.9144 24.9579 14.2086 24.876L18.0619 23.736C18.4052 23.6423 18.7673 23.6423 19.1106 23.736L20.7019 24.2693C21.0941 24.3648 21.5029 24.37 21.8974 24.2845C22.2918 24.199 22.6618 24.0251 22.9793 23.7758C23.2968 23.5266 23.5535 23.2085 23.7302 22.8455C23.9069 22.4826 23.9989 22.0843 23.9992 21.6807V18.248C23.9977 17.5583 23.7829 16.8859 23.3843 16.323C22.9857 15.7602 22.4227 15.3344 21.7726 15.104V15.1047ZM13.1712 11.508C13.5421 11.1357 13.9828 10.8402 14.4681 10.6386C14.9534 10.437 15.4737 10.3333 15.9992 10.3333C16.5248 10.3333 17.0451 10.437 17.5304 10.6386C18.0157 10.8402 18.4564 11.1357 18.8272 11.508C19.5754 12.2608 19.9959 13.2785 19.9972 14.3398C19.9986 15.4011 19.5807 16.42 18.8346 17.1747L16.4659 19.478C16.3423 19.5992 16.176 19.6671 16.0029 19.6671C15.8298 19.6671 15.6635 19.5992 15.5399 19.478L13.1712 17.1847C12.4216 16.4303 12.0008 15.4099 12.0008 14.3463C12.0008 13.2828 12.4216 12.2624 13.1712 11.508ZM22.6659 21.6807C22.6663 21.8826 22.6207 22.0819 22.5324 22.2635C22.4441 22.4452 22.3156 22.6042 22.1566 22.7287C22.0063 22.8495 21.8313 22.9357 21.6439 22.9812C21.4566 23.0267 21.2615 23.0304 21.0726 22.992L19.5092 22.4667C18.9179 22.2968 18.2912 22.2931 17.6979 22.456L13.8419 23.5947C13.4714 23.6969 13.0793 23.6902 12.7126 23.5753L10.7832 22.9753C10.3657 22.8546 9.99855 22.6016 9.73698 22.2545C9.4754 21.9073 9.3335 21.4847 9.33258 21.05V18.3333C9.33108 18.0639 9.38472 17.7969 9.49019 17.5489C9.59567 17.301 9.75075 17.0772 9.94591 16.8913C10.2514 16.6002 10.6406 16.4122 11.0586 16.354C11.3273 17.0201 11.7275 17.6253 12.2352 18.1333L14.6132 20.4353C14.9849 20.7993 15.4844 21.0031 16.0046 21.0031C16.5248 21.0031 17.0242 20.7993 17.3959 20.4353L19.7712 18.1267C20.3031 17.5927 20.7151 16.9516 20.9799 16.246L21.3379 16.3647C21.7262 16.5038 22.062 16.7593 22.2997 17.0964C22.5374 17.4334 22.6653 17.8356 22.6659 18.248V21.6807Z" fill="#121315"/>
</g>
<defs>
<clipPath id="clip0_106_7291">
<rect width="16" height="16" fill="white" transform="translate(8 9)"/>
</clipPath>
</defs>
</svg>
