<svg width="57" height="56" viewBox="0 0 57 56" fill="none" xmlns="http://www.w3.org/2000/svg">
<path d="M21.7181 51.3321H16.1183C16.1183 50.6414 15.7372 50.0067 15.1274 49.6832C14.5177 49.3596 13.7788 49.3985 13.2064 49.7858C12.9684 49.0921 12.3446 48.6021 11.6151 48.5383C10.884 48.4745 10.1856 48.8479 9.83091 49.4903C9.75003 49.4763 9.66758 49.4685 9.58514 49.4654H9.56959C9.70647 49.7407 9.84958 50.0145 10.0222 50.2883C10.1716 50.5325 10.3473 50.755 10.5169 50.9774C9.72669 51.8952 8.53673 52.3681 7.33121 52.2421C6.12569 52.1161 5.05861 51.4083 4.47529 50.3459C4.31352 50.3739 4.14864 50.391 3.98375 50.3972C2.92601 50.3941 1.91804 49.9398 1.21495 49.1481C1.19939 49.2523 1.18695 49.3581 1.18384 49.4638C1.18539 50.2727 1.54005 51.0412 2.15603 51.5685C1.40783 51.9761 1.0314 52.8394 1.24295 53.6638C1.4545 54.4883 2.19803 55.0654 3.05045 55.0638H25.4513C25.4513 53.0027 23.7792 51.3305 21.7181 51.3305V51.3321Z" fill="#22BCFF"/>
<path d="M29.1865 33.6016C29.1819 34.7885 29.9301 35.8478 31.05 36.2429C32.17 36.6364 33.416 36.2802 34.1564 35.3516C34.7273 35.5647 35.3666 35.4822 35.8659 35.1338C36.3652 34.7838 36.6592 34.2113 36.6545 33.6016H29.1881H29.1865Z" fill="#22BCFF"/>
<path opacity="0.2" d="M17.0517 33.6016H20.7849C21.8162 33.6016 22.6515 34.4369 22.6515 35.4682V40.1349H15.1851V35.4682C15.1851 34.4369 16.0204 33.6016 17.0517 33.6016Z" fill="#22BCFF"/>
<path opacity="0.12" d="M26.3823 46.0124C26.4352 41.8373 23.1313 38.3902 18.9579 38.2657C13.358 38.2362 9.17215 44.3791 12.8198 50.2902C14.7424 53.3017 18.0837 55.1062 21.6567 55.0657H33.8487L31.1421 53.7124C28.2256 52.2548 26.3838 49.2728 26.3823 46.0124Z" fill="#22BCFF"/>
<path opacity="0.2" d="M18.9193 0.929688C19.9506 0.929688 20.786 1.76502 20.786 2.79635V33.5964H17.0527V2.79635C17.0527 1.76502 17.888 0.929688 18.9193 0.929688Z" fill="#22BCFF"/>
<path opacity="0.2" d="M11.9941 42.9323H25.7542C24.6326 40.1152 21.9074 38.2656 18.8742 38.2656C15.8409 38.2656 13.1157 40.1152 11.9941 42.9323Z" fill="#22BCFF"/>
<path d="M30.2898 33.5989C29.8154 32.3218 30.3505 30.8907 31.5467 30.2389C31.1158 29.5514 30.405 29.0847 29.6023 28.9618C28.7997 28.8389 27.9815 29.0723 27.3639 29.5996C26.7464 30.1285 26.3886 30.8985 26.3855 31.7105C26.3824 32.5225 26.7324 33.2971 27.3468 33.8291L27.3188 33.5974H30.2898V33.5989Z" fill="#22BCFF"/>
<path d="M45.6711 31.3887C43.9087 32.2131 41.8103 31.5256 40.8755 29.8191C40.0588 29.9638 39.2173 29.7974 38.5173 29.3525C36.8016 30.3729 34.5865 29.8425 33.5179 28.1562C33.1306 28.6431 32.919 29.2467 32.9175 29.8674C33.7621 29.8705 34.5617 30.2562 35.0874 30.9174C35.8247 30.6451 36.6507 30.866 37.1547 31.468C37.6571 32.0716 37.7256 32.9256 37.3258 33.6007H45.8126C46.0849 32.8758 46.032 32.07 45.6711 31.3871V31.3887Z" fill="#22BCFF"/>
<path d="M42.2496 51.3349H42.7241C43.2887 51.3287 43.844 51.1902 44.3449 50.9289C37.8211 49.4636 32.9072 44.0813 32.0377 37.4531L31.5353 33.6016H27.3152L30.1151 55.0682H39.4482V54.1349C39.4482 52.5887 40.7019 51.3349 42.2481 51.3349H42.2496Z" fill="#22BCFF"/>
<path d="M44.798 47.2709C43.7682 47.1075 42.7665 46.8042 41.8207 46.3671C38.3209 44.7555 36.5865 40.2475 37.2476 38.8009C37.4622 38.3326 37.2584 37.7789 36.7902 37.5626C36.322 37.3464 35.7683 37.5517 35.552 38.02C34.3325 40.6722 36.8198 46.1213 41.0368 48.0611C42.177 48.5884 43.3887 48.9524 44.6316 49.1391L44.798 47.2693V47.2709Z" fill="#22BCFF"/>
<path opacity="0.2" d="M54.3817 31.7336C53.7471 31.7367 53.156 31.4147 52.8122 30.8827C52.4685 30.3507 52.4202 29.6787 52.6831 29.1016C52.1216 29.352 51.7187 29.8622 51.6067 30.4673C51.4947 31.0725 51.6876 31.6931 52.1216 32.1287C52.5571 32.5627 53.1778 32.7556 53.7829 32.6436C54.388 32.5316 54.8982 32.1287 55.1486 31.5671C54.9075 31.676 54.6477 31.7336 54.3833 31.7351L54.3817 31.7336Z" fill="#22BCFF"/>
<path opacity="0.2" d="M48.7836 25.2023C48.1489 25.2054 47.5578 24.8834 47.2141 24.3514C46.8703 23.8194 46.8221 23.1474 47.085 22.5703C46.5234 22.8208 46.1206 23.331 46.0086 23.9361C45.8966 24.5412 46.0894 25.1619 46.5234 25.5974C46.959 26.0314 47.5796 26.2243 48.1847 26.1123C48.7898 26.0003 49.3 25.5974 49.5504 25.0359C49.3093 25.1448 49.0496 25.2023 48.7851 25.2039L48.7836 25.2023Z" fill="#22BCFF"/>
<path opacity="0.2" d="M3.98207 34.5304C3.34742 34.5335 2.75633 34.2115 2.41256 33.6795C2.0688 33.1475 2.02058 32.4755 2.28346 31.8984C1.72192 32.1489 1.31904 32.6591 1.20704 33.2642C1.09505 33.8693 1.28793 34.49 1.72192 34.9255C2.15746 35.3595 2.77811 35.5524 3.3832 35.4404C3.98829 35.3284 4.4985 34.9255 4.74894 34.364C4.50783 34.4729 4.24806 34.5304 3.98363 34.532L3.98207 34.5304Z" fill="#22BCFF"/>
<path opacity="0.2" d="M6.7831 41.9992C6.14845 42.0023 5.55736 41.6803 5.21359 41.1483C4.86982 40.6163 4.8216 39.9443 5.08448 39.3672C4.52294 39.6176 4.12007 40.1279 4.00807 40.733C3.89607 41.3381 4.08896 41.9587 4.52294 42.3943C4.95849 42.8283 5.57913 43.0227 6.18423 42.9092C6.78932 42.7972 7.29953 42.3943 7.54996 41.8327C7.30886 41.9416 7.04909 41.9992 6.78465 42.0007L6.7831 41.9992Z" fill="#22BCFF"/>
<path d="M55.2454 52.7216C53.777 53.5584 51.9291 53.2847 50.7655 52.0589C49.84 52.4416 48.7807 52.2922 47.9983 51.6669C46.5626 52.6064 44.668 52.4338 43.4251 51.25C43.1918 51.3029 42.9553 51.3324 42.7158 51.3356H42.2491C40.703 51.3356 39.4492 52.5893 39.4492 54.1356V55.0689H53.4488C53.9995 55.0689 54.5205 54.8278 54.8768 54.4062C55.2314 53.9862 55.3839 53.4309 55.2905 52.888C55.2781 52.832 55.2625 52.776 55.2454 52.7216Z" fill="#22BCFF"/>
<path d="M36.6478 32.6703C36.4331 32.6688 36.22 32.6283 36.0178 32.5537C35.2774 33.4808 34.0314 33.8386 32.9115 33.445C31.7915 33.0499 31.0448 31.9921 31.048 30.8037C31.048 30.7259 31.0651 30.6543 31.0713 30.5781C30.4786 31.093 30.1318 31.8335 30.1131 32.6159C30.0944 33.3999 30.4071 34.1559 30.9733 34.6972C31.5395 35.2386 32.3079 35.5186 33.0903 35.4657C33.8728 35.4128 34.5961 35.0332 35.0845 34.4203C35.6554 34.6335 36.2947 34.5526 36.794 34.2026C37.2933 33.8526 37.5873 33.2801 37.5826 32.6703C37.5795 32.5879 37.5718 32.507 37.5578 32.4246C37.2809 32.5832 36.9682 32.6688 36.6493 32.6703H36.6478Z" fill="#22BCFF"/>
<path d="M53.3489 50.4H52.9367C52.2725 49.2489 51.0452 48.538 49.7152 48.5333C49.1957 48.5333 48.6839 48.6438 48.211 48.8553C47.3866 48.4338 46.4082 48.4415 45.59 48.8771L45.7207 47.3713C45.8498 47.376 45.9851 47.3962 46.1111 47.3962C46.3491 47.3962 46.5824 47.3869 46.8111 47.3682C48.771 47.2095 50.1959 46.3835 50.8118 45.0458C51.8945 42.6938 50.1196 39.5982 46.5762 37.5262L46.9137 33.6809C46.9246 33.5471 46.9059 33.4133 46.8608 33.2873C46.8966 33.082 46.9153 32.8751 46.9137 32.6667C46.9106 31.3227 46.1842 30.0844 45.0129 29.4264C44.8449 28.3811 44.1029 27.5193 43.0934 27.1973C42.7636 25.6869 41.5332 24.5373 40.0042 24.3102C38.4751 24.0816 36.9631 24.822 36.2072 26.1707C36.0438 26.1473 35.879 26.1349 35.7141 26.1333C33.975 26.1364 32.4693 27.3389 32.082 29.0344C31.9948 29.0547 31.9108 29.0873 31.8269 29.1153C31.1315 28.4029 30.178 28.0016 29.1825 28.0016C27.7079 27.9984 26.3701 28.8649 25.7713 30.212C25.1724 31.5591 25.4244 33.1333 26.4168 34.2269L26.4526 34.1942L28.5338 50.162C27.739 48.9253 27.3159 47.4864 27.3159 46.0149C27.3268 43.1464 25.9315 40.4553 23.5827 38.8096V35.4682C23.578 34.286 22.8313 33.2344 21.716 32.8393V2.8C21.716 1.25378 20.4623 0 18.9161 0C17.37 0 16.1162 1.25378 16.1162 2.8V32.8378C15.0009 33.2313 14.2543 34.2829 14.2496 35.4667V38.7722C11.3144 40.7089 9.91596 44.2836 10.7544 47.698C10.2193 47.8349 9.73552 48.1273 9.36531 48.538C8.98888 48.5691 8.62178 48.6749 8.2889 48.8522C8.06957 48.7542 7.84247 48.678 7.60759 48.6235C7.18604 46.7724 5.43765 45.5342 3.55082 45.7504C1.66554 45.9667 0.242254 47.5673 0.250032 49.4667C0.250032 50.1807 0.45847 50.8807 0.848902 51.4795C0.186256 52.3211 0.0633707 53.4675 0.531579 54.4304C0.999787 55.3933 1.9782 56.0031 3.04995 56H53.4484C54.2728 56 55.0553 55.6375 55.5872 55.0075C56.1208 54.3775 56.3479 53.5453 56.211 52.7333C55.9466 51.366 54.741 50.3829 53.3489 50.4ZM49.1163 44.2649C48.5719 45.0815 47.6417 45.5529 46.6602 45.5078C46.402 45.5218 46.1406 45.5218 45.8824 45.5078L46.3942 39.6278C48.5019 41.1024 49.6872 43.0267 49.1163 44.2649ZM36.4078 28.1369C36.6551 28.2364 36.9336 28.2256 37.1716 28.1073C37.4111 27.9876 37.5869 27.7729 37.6569 27.5162C37.898 26.614 38.7722 26.0307 39.6993 26.1536C40.6264 26.2764 41.317 27.0667 41.3155 28.0016C41.3155 28.2489 41.4135 28.4869 41.5892 28.6611C41.765 28.8353 42.0014 28.9349 42.2488 28.9349C42.7574 28.9349 43.1712 29.3409 43.1821 29.8496L43.1681 29.96C43.1338 30.3847 43.3905 30.7782 43.7918 30.9182C44.5385 31.1764 45.0424 31.8796 45.0471 32.6698H38.514C38.514 31.8702 38.1718 31.1096 37.5745 30.5791C36.9771 30.0487 36.1823 29.7967 35.3874 29.89C34.9923 29.54 34.5272 29.2771 34.0217 29.1216C34.4292 28.2131 35.4761 27.7822 36.4047 28.14L36.4078 28.1369ZM31.0491 32.6667C31.0444 31.8749 31.5422 31.1671 32.2888 30.9058C33.0355 30.6429 33.8661 30.884 34.3592 31.5031C34.6081 31.8111 35.0265 31.9293 35.4014 31.7955C35.5025 31.7567 35.6083 31.7364 35.7172 31.7333C36.232 31.7333 36.6505 32.1518 36.6505 32.6667C36.6505 33.1815 36.232 33.6 35.7172 33.6C35.6098 33.5984 35.5025 33.5767 35.4014 33.5378C35.0265 33.404 34.6097 33.5207 34.3592 33.8302C33.8677 34.4509 33.037 34.692 32.2888 34.4276C31.5422 34.1647 31.0444 33.4584 31.0491 32.6667ZM29.1825 29.8667C29.5325 29.8698 29.8731 29.9724 30.1656 30.1622C29.5356 30.8435 29.184 31.738 29.1825 32.6667H27.5803C27.4077 32.3867 27.3159 32.0631 27.3159 31.7333C27.3159 30.702 28.1512 29.8667 29.1825 29.8667ZM29.702 34.5333C30.2558 35.5087 31.2233 36.1776 32.3293 36.3549C33.4368 36.5322 34.5645 36.1978 35.3952 35.4449C36.2912 35.5522 37.184 35.2116 37.7798 34.5318H44.9662L44.6691 37.9587L44.0345 45.2542C43.2723 45.0753 42.5303 44.8218 41.8194 44.4951C38.3227 42.8851 36.6038 40.2018 37.2462 38.7955C37.4609 38.3273 37.2571 37.7736 36.7889 37.5573C36.3207 37.3427 35.7654 37.5464 35.5507 38.0147C34.3468 40.628 36.7563 44.2198 41.0339 46.1891C41.9408 46.606 42.8927 46.9218 43.868 47.1302L43.5989 50.232C43.3189 50.3378 43.0234 50.3938 42.7247 50.3969H42.2488C40.1877 50.3969 38.5155 52.0691 38.5155 54.1302H34.0683L31.5609 52.8764C31.2653 52.7271 30.9807 52.5575 30.7053 52.3709L28.3783 34.5302H29.7005L29.702 34.5333ZM29.8825 54.0633C27.0421 53.7755 24.488 52.206 22.948 49.8011C22.6665 49.3873 22.1111 49.2691 21.6849 49.532C21.2587 49.7949 21.1172 50.3456 21.3614 50.7811C22.136 52.0287 23.158 53.102 24.3651 53.9373C21.8545 53.4551 19.6534 51.9587 18.283 49.8011C18.003 49.3873 17.4462 49.2691 17.02 49.532C16.5953 49.7949 16.4522 50.3456 16.6964 50.7811C17.4664 52.0193 18.4837 53.0864 19.683 53.9171C17.1817 53.4364 14.9869 51.9493 13.6165 49.8011C12.4561 48.0542 12.1108 45.8889 12.6692 43.8667H16.1162V45.7333C16.1162 46.2482 16.5346 46.6667 17.0495 46.6667C17.5644 46.6667 17.9828 46.2482 17.9828 45.7333V43.8667H19.8494V45.7333C19.8494 46.2482 20.2679 46.6667 20.7827 46.6667C21.2976 46.6667 21.716 46.2482 21.716 45.7333V43.8667H25.1117C25.3342 44.5604 25.4493 45.2853 25.4493 46.0133C25.4399 49.2815 27.1152 52.3242 29.8809 54.0633H29.8825ZM18.9177 39.2H18.9535C21.0472 39.2295 22.9962 40.2733 24.18 42H13.5683C14.7863 40.25 16.7835 39.2047 18.9161 39.2H18.9177ZM17.9844 2.8C17.9844 2.28511 18.4028 1.86667 18.9177 1.86667C19.4326 1.86667 19.851 2.28511 19.851 2.8V32.6667H17.9844V2.8ZM16.1178 35.4667C16.1178 34.9518 16.5362 34.5333 17.0511 34.5333H20.7843C21.2992 34.5333 21.7176 34.9518 21.7176 35.4667V37.8404C20.8356 37.5122 19.9039 37.3411 18.9628 37.3333H18.9177C17.9626 37.3396 17.0153 37.5075 16.1178 37.8327V35.4667ZM3.04995 54.1333C2.53507 54.1333 2.11664 53.7149 2.11664 53.2C2.11664 52.8609 2.30486 52.5482 2.60507 52.3895C2.87262 52.2433 3.05306 51.9758 3.08572 51.6724C3.11839 51.3691 3.00173 51.0689 2.77151 50.8682C2.3593 50.5198 2.11975 50.008 2.1182 49.4682C2.12286 48.4789 2.89906 47.6669 3.88681 47.6171C4.87456 47.5673 5.72853 48.2984 5.83275 49.2815C5.84519 49.3422 5.85297 49.406 5.85297 49.4682C5.85297 49.7155 5.95097 49.9535 6.12674 50.1278C6.30251 50.302 6.53895 50.4016 6.78628 50.4016C7.15493 50.4016 7.51426 50.5151 7.81758 50.7235C8.17224 50.9647 8.64822 50.9335 8.9671 50.6458C9.13354 50.4902 9.35287 50.4047 9.57997 50.4016L9.71063 50.4187C10.0871 50.4638 10.4542 50.2802 10.6439 49.952C10.7886 49.6907 11.0515 49.5164 11.3486 49.4853C11.5446 49.9333 11.7717 50.3689 12.0283 50.7873C12.8761 52.1375 14.0147 53.2809 15.3618 54.1349H3.04995V54.1333ZM54.1608 53.8035C53.9835 54.012 53.7222 54.1333 53.4484 54.1333H40.3821C40.3821 53.102 41.2175 52.2667 42.2488 52.2667H42.7247C44.0687 52.234 45.3427 51.6584 46.2573 50.6722C46.6057 50.3191 47.1719 50.3067 47.5344 50.6442C47.8533 50.932 48.3292 50.9631 48.6839 50.722C48.9888 50.5135 49.3481 50.4015 49.7168 50.4C50.5038 50.4047 51.2038 50.9024 51.4651 51.646C51.5974 52.0178 51.9505 52.2667 52.344 52.2667H53.3489C53.828 52.2495 54.2542 52.57 54.3677 53.0367C54.4159 53.3104 54.3397 53.592 54.1608 53.8035Z" fill="#22BCFF"/>
<path d="M47.8499 27.0677C48.9823 27.0677 50.0027 26.3848 50.4367 25.3395C50.8707 24.2942 50.6311 23.0902 49.83 22.2891C49.0289 21.4879 47.825 21.2484 46.7797 21.6824C45.7328 22.1164 45.0515 23.1368 45.0515 24.2693C45.0515 25.8155 46.3053 27.0693 47.8514 27.0693L47.8499 27.0677ZM47.8499 23.3344C48.2279 23.3344 48.567 23.5615 48.7116 23.9099C48.8563 24.2584 48.7754 24.6597 48.5094 24.9273C48.2434 25.1933 47.8405 25.2742 47.4921 25.1295C47.1437 24.9848 46.9166 24.6442 46.9166 24.2677C46.9166 23.7528 47.335 23.3344 47.8499 23.3344Z" fill="#22BCFF"/>
<path d="M53.448 33.599C54.5804 33.599 55.6008 32.9161 56.0348 31.8707C56.4688 30.8254 56.2293 29.6199 55.4282 28.8203C54.6271 28.0192 53.4231 27.7796 52.3778 28.2136C51.331 28.6476 50.6497 29.6681 50.6497 30.8005C50.6497 32.3467 51.9034 33.6005 53.4496 33.6005L53.448 33.599ZM53.448 29.8656C53.826 29.8656 54.1651 30.0927 54.3098 30.4412C54.4544 30.7896 54.3735 31.191 54.1076 31.4585C53.8416 31.7245 53.4387 31.8054 53.0903 31.6607C52.7418 31.5161 52.5147 31.1754 52.5147 30.799C52.5147 30.2841 52.9331 29.8656 53.448 29.8656Z" fill="#22BCFF"/>
<path d="M3.04867 41.0641C3.04867 42.1965 3.73154 43.217 4.77684 43.651C5.82215 44.085 7.02611 43.8454 7.8272 43.0443C8.62828 42.2432 8.86783 41.0392 8.43384 39.9938C8.00141 38.947 6.97944 38.2656 5.84703 38.2656C4.30086 38.2656 3.04712 39.5194 3.04712 41.0656L3.04867 41.0641ZM6.78189 41.0641C6.78189 41.4421 6.55479 41.7812 6.20636 41.9258C5.85792 42.0705 5.4566 41.9896 5.18905 41.7236C4.92306 41.4576 4.84218 41.0547 4.98684 40.7063C5.1315 40.3578 5.47216 40.1307 5.84859 40.1307C6.36346 40.1307 6.78189 40.5492 6.78189 41.0641Z" fill="#22BCFF"/>
<path d="M3.04992 36.4037C4.18233 36.4037 5.20274 35.7208 5.63673 34.6754C6.06916 33.6301 5.83117 32.4245 5.03008 31.625C4.22899 30.8239 3.02503 30.5843 1.97973 31.0183C0.932868 31.4508 0.25 32.4712 0.25 33.6037C0.25 35.1499 1.50374 36.4037 3.04992 36.4037ZM3.04992 32.6703C3.4279 32.6703 3.76701 32.8974 3.91167 33.2459C4.05633 33.5943 3.97544 33.9957 3.70945 34.2632C3.4419 34.5292 3.04058 34.6101 2.69215 34.4654C2.34371 34.3208 2.11661 33.9801 2.11661 33.6037C2.11661 33.0888 2.53504 32.6703 3.04992 32.6703Z" fill="#22BCFF"/>
<path opacity="0.1" d="M49.047 27.0682C49.047 37.1856 40.8463 45.3864 30.7293 45.3864C20.6123 45.3864 12.4116 37.1856 12.4116 27.0682C12.4116 16.9509 20.6123 8.75 30.7293 8.75C40.8463 8.75 49.047 16.9509 49.047 27.0682Z" fill="#22BCFF"/>
</svg>
