<svg width="57" height="56" viewBox="0 0 57 56" fill="none" xmlns="http://www.w3.org/2000/svg">
<path opacity="0.1" d="M48.9173 18C48.9173 27.9416 39.9616 36 28.913 36C17.8644 36 8.90869 27.9416 8.90869 18C8.90869 8.05842 17.8644 0 28.913 0C39.9616 0 48.9173 8.05842 48.9173 18Z" fill="#22BCFF"/>
<path opacity="0.1" d="M32.0715 39H41.5473V24H32.0715V39Z" fill="#22BCFF"/>
<path d="M31.626 26.625H38.0947V45.4575H31.626V26.625Z" fill="#22BCFF"/>
<path d="M28.7536 49.2189H26.9571C25.9654 49.2189 25.1606 50.0624 25.1606 51.1018V53.3624C25.1606 54.4018 25.9654 55.2453 26.9571 55.2453H39.8946C40.8863 55.2453 41.6911 54.4018 41.6911 53.3624V45.4531H29.4726L28.7536 49.2189Z" fill="#22BCFF"/>
<path d="M42.0469 27.7492L43.8434 25.8663H46.8976C48.386 25.8663 49.5932 24.6011 49.5932 23.0411V11.3643C49.5932 9.80433 48.386 8.53906 46.8976 8.53906H45.2796L43.1228 10.7996H34.4973L33.0594 8.53906H30.7241C29.2358 8.53906 28.0286 9.80433 28.0286 11.3643V26.6199H32.8203" fill="#22BCFF"/>
<path d="M12.0391 13.8125H19.4069V22.8529H12.0391C10.5507 22.8529 9.34351 21.5876 9.34351 20.0277V16.6377C9.34351 15.0778 10.5507 13.8125 12.0391 13.8125Z" fill="#22BCFF"/>
<path d="M11.828 32.2386L13.0571 29.8828L14.2862 32.2386L16.5339 33.5269L14.2862 34.8151L13.0571 37.1709L11.828 34.8151L9.58032 33.5269L11.828 32.2386Z" fill="#22BCFF"/>
<path d="M36.6607 45.4531H29.4731L28.7542 49.2189H36.6607V45.4531Z" fill="#22BCFF"/>
<path d="M29.5886 32.4236C29.9859 31.3842 31.1106 30.8778 32.1023 31.2942L35.6936 32.7995C36.6853 33.2159 37.1685 34.3947 36.7712 35.4341C36.3738 36.4735 35.2491 36.98 34.2574 36.5635L30.6661 35.0583C29.6744 34.6418 29.1912 33.463 29.5886 32.4236Z" fill="white"/>
<path d="M28.7542 38.0355V38.8737C28.7542 39.6484 29.2744 40.3172 30.0001 40.4707C31.4868 40.7884 34.0207 41.2384 36.0193 41.129C36.7837 41.0848 37.383 40.4196 37.3797 39.6166V39.2302C37.3797 38.4873 36.8645 37.8537 36.1641 37.7355C34.8407 37.5149 32.6586 37.0967 30.7746 36.4808C29.9546 36.2126 29.0825 36.6908 28.8249 37.5484C28.7777 37.7055 28.7542 37.8696 28.7542 38.0355Z" fill="white"/>
<path d="M29.4722 42.7732C29.4722 43.4226 29.9739 43.9484 30.5935 43.9484H34.8499C35.4577 43.9484 35.9544 43.442 35.9712 42.8067L35.9813 42.4432C35.9981 41.7938 35.5116 41.252 34.892 41.2344C34.8515 41.2344 34.8095 41.2344 34.769 41.2379L30.5026 41.6014C29.92 41.6508 29.4722 42.1608 29.4722 42.7732Z" fill="#FFBE92"/>
<path d="M51.7493 30.39H45.9995L38.0929 25.1172L30.1863 27.3777C30.1863 27.3777 31.6241 30.3918 34.4982 29.6383L37.3739 28.8848L40.9669 32.6506C40.9669 32.6506 40.248 36.4164 41.6859 38.6769V46.2103C41.6859 46.2103 44.5616 45.4568 45.9978 42.4445H51.7476V30.3918L51.7493 30.39Z" fill="white"/>
<path d="M23.7203 32.6478C24.9114 32.6478 25.8771 31.4675 25.8771 30.0114C25.8771 28.5554 24.9114 27.375 23.7203 27.375C22.5291 27.375 21.5635 28.5554 21.5635 30.0114C21.5635 31.4675 22.5291 32.6478 23.7203 32.6478Z" fill="white"/>
<path d="M28.0349 26.6249H22.105C20.6166 26.6249 19.4094 25.3597 19.4094 23.7997V13.6299C19.4094 12.07 20.6166 10.8047 22.105 10.8047H28.0888" fill="white"/>
<path opacity="0.3" d="M9.40134 16.073H19.4109V13.8125H12.0414C10.7601 13.8125 9.65558 14.7566 9.39966 16.073H9.40134Z" fill="#FAFCFC"/>
<path opacity="0.3" d="M46.9029 8.53906H45.2849L43.1281 10.7996H34.5025L33.0647 8.53906H30.7294C29.4481 8.53906 28.3436 9.48316 28.0877 10.7996H22.1039C20.8226 10.7996 19.7181 11.7437 19.4622 13.0601H49.5968V11.3643C49.5968 9.80433 48.3896 8.53906 46.9012 8.53906H46.9029Z" fill="#FAFCFC"/>
<path d="M25.157 39.4281C25.157 37.764 23.869 36.4141 22.2813 36.4141C20.6935 36.4141 19.4055 37.764 19.4055 39.4281C19.4055 41.0922 20.6935 42.4422 22.2813 42.4422C23.869 42.4404 25.1553 41.0922 25.157 39.4281ZM20.8451 39.4281C20.8451 38.5952 21.4882 37.9211 22.2829 37.9211C23.0776 37.9211 23.7208 38.5952 23.7208 39.4281C23.7208 40.261 23.0776 40.9351 22.2829 40.9351C21.4899 40.9351 20.8468 40.261 20.8451 39.4281Z" fill="#22BCFF"/>
<path d="M17.2527 33.5232C17.2527 33.2479 17.1096 32.9938 16.8789 32.8614L14.8164 31.6791L13.6883 29.5174C13.4981 29.1521 13.0603 29.018 12.7135 29.2174C12.5922 29.2862 12.4946 29.3903 12.4272 29.5174L11.2992 31.6791L9.23665 32.8614C8.88813 33.0608 8.76017 33.5196 8.95042 33.8831C9.01609 34.0102 9.11543 34.1125 9.23665 34.1831L11.2992 35.3655L12.4272 37.5272C12.6175 37.8925 13.0553 38.0266 13.4021 37.8272C13.5233 37.7584 13.621 37.6542 13.6883 37.5272L14.8164 35.3655L16.8789 34.1831C17.1096 34.0508 17.2527 33.7967 17.2527 33.5214V33.5232ZM13.9426 34.1496C13.8213 34.2184 13.722 34.3225 13.6563 34.4496L13.0586 35.5966L12.4609 34.4496C12.3952 34.3225 12.2959 34.2184 12.1747 34.1496L11.0803 33.5232L12.1747 32.8967C12.2959 32.8279 12.3952 32.7238 12.4609 32.5967L13.0586 31.4497L13.6563 32.5967C13.722 32.7238 13.8213 32.8279 13.9426 32.8967L15.037 33.5232L13.9426 34.1496Z" fill="#22BCFF"/>
<path d="M12.9407 9.29688H14.3785V10.8039H12.9407V9.29688Z" fill="#22BCFF"/>
<path d="M14.3767 40.9375H15.8146V42.4445H14.3767V40.9375Z" fill="#22BCFF"/>
<path d="M6.46777 27.375H7.90564V28.882H6.46777V27.375Z" fill="#22BCFF"/>
<path d="M43.1918 27.6204L44.1448 26.6216H46.9027C48.7867 26.6198 50.3155 25.0193 50.3172 23.0429V11.3678C50.3155 9.39315 48.7884 7.79083 46.9027 7.78906H45.2846C45.0944 7.78906 44.9109 7.86847 44.7762 8.00965L42.8298 10.0496H41.69V8.54258C41.69 8.12611 41.3684 7.78906 40.971 7.78906H36.6591C36.2618 7.78906 35.9402 8.12611 35.9402 8.54258V10.0496H34.8879L33.6638 8.12435C33.5308 7.91435 33.3069 7.78906 33.0661 7.78906H30.7309C29.3317 7.79083 28.074 8.68551 27.5571 10.0496H22.1053C20.4284 10.0514 19.0006 11.3272 18.7346 13.0637H12.0403C10.365 13.0654 8.93722 14.3413 8.66951 16.0742L6.25511 16.8648C5.95541 16.9636 5.75168 17.2547 5.75 17.583V19.8435C5.75 20.1894 5.97393 20.4911 6.29383 20.5741L8.82441 21.2376C9.311 22.6599 10.5973 23.6093 12.0386 23.6111H18.6874V23.7999C18.6891 25.7005 20.1085 27.2692 21.9201 27.3734C21.2231 28.0563 20.8325 29.0145 20.8442 30.0151C20.8442 31.8839 22.134 33.405 23.72 33.405C24.715 33.405 25.5922 32.8068 26.1091 31.898H29.0472C29.0084 31.9774 28.9731 32.0568 28.9411 32.1397C28.4293 33.4791 28.9815 35.0073 30.2106 35.6567C28.9933 35.7114 28.0336 36.7614 28.0319 38.039V38.8772C28.0353 39.9113 28.6734 40.8272 29.6129 41.1448C28.7525 41.7095 28.4916 42.8989 29.0303 43.8007C29.3671 44.3636 29.9564 44.7059 30.5911 44.7042H29.4698C29.1263 44.7042 28.8317 44.9583 28.7643 45.3094L28.1615 48.47H26.9543C25.5653 48.47 24.4406 49.6505 24.4389 51.1064V53.3669C24.4389 54.8228 25.5653 56.0016 26.9543 56.0033H39.8918C41.2808 56.0033 42.4055 54.8228 42.4072 53.3669V46.753C43.3332 46.3824 45.219 45.3977 46.4295 43.1971H51.75V41.6901H46.0002C45.7274 41.6901 45.4799 41.8507 45.357 42.1066C44.5674 43.7618 43.2726 44.6636 42.4055 45.1083V38.6778C42.4055 38.5296 42.3634 38.3831 42.2843 38.2596C41.0316 36.2902 41.6664 32.8332 41.6714 32.7979C41.7186 32.5509 41.6445 32.295 41.4745 32.1168L37.8815 28.351C37.703 28.1639 37.4437 28.088 37.1979 28.1533L34.3222 28.9069C32.8994 29.2792 31.9061 28.4904 31.3504 27.8251L37.9724 25.9316L45.6113 31.0262C45.7274 31.1039 45.8605 31.1445 45.9968 31.1427H51.7466V29.6357H46.2056L43.1851 27.6204H43.1918ZM37.378 9.29609H40.2538V10.0496H37.378V9.29609ZM27.3147 22.1023H20.127V20.5953H27.3147V22.1023ZM27.3147 19.0882H20.127V17.5812H27.3147V19.0882ZM27.3147 16.0742H20.127V14.5672H27.3147V16.0742ZM22.1036 11.5549H27.3147V13.0619H20.2028C20.4452 12.1707 21.2197 11.5566 22.1036 11.5549ZM7.18955 18.1353L8.62742 17.6641V19.63L7.18955 19.2541V18.1353ZM12.0419 22.1023C11.158 22.1023 10.3818 21.4864 10.1411 20.5953H14.3789V19.0882H10.0636V17.5812H14.3755V16.0742H10.1394C10.3818 15.183 11.1563 14.5689 12.0403 14.5672H18.6891V22.1005H12.0403L12.0419 22.1023ZM20.1287 23.7981V23.6093H27.3163V25.8699H22.1053C21.0143 25.8699 20.1304 24.9416 20.1287 23.7981ZM23.7217 31.8962C22.9287 31.8962 22.2838 31.0509 22.2838 30.0133C22.2838 28.9757 22.9287 28.1304 23.7217 28.1304C24.5147 28.1304 25.1595 28.9757 25.1595 30.0133C25.1595 31.0509 24.5147 31.8962 23.7217 31.8962ZM26.5974 27.3769H29.4731C29.4731 27.4934 29.4984 27.6098 29.5489 27.7139C29.884 28.3863 30.3487 28.9792 30.911 29.4574V30.3909H26.5991V27.3769H26.5974ZM30.2796 32.6991C30.4648 32.2156 30.911 31.898 31.4077 31.8962H31.4111C31.566 31.8962 31.7175 31.928 31.8606 31.988L35.4536 33.495C36.0782 33.7562 36.3813 34.4991 36.1321 35.152C35.8829 35.8067 35.1741 36.1244 34.5511 35.8632L30.9582 34.3562C30.3352 34.0932 30.0321 33.3521 30.2813 32.6991H30.2796ZM29.4731 38.039C29.4731 37.5555 29.8469 37.1637 30.3083 37.162C30.3941 37.162 30.48 37.1761 30.5608 37.2026C32.4381 37.8149 34.5831 38.2367 36.0513 38.4819C36.4032 38.5402 36.6625 38.8596 36.6608 39.2319V39.6184C36.6625 40.0207 36.3645 40.3543 35.9806 40.3772C34.0292 40.4848 31.4851 40.019 30.1432 39.7331C29.7543 39.6484 29.4748 39.2902 29.4731 38.8737V38.0355V38.039ZM30.1921 42.7754C30.1921 42.5566 30.3537 42.373 30.5625 42.3536L34.8289 41.9883C34.8407 41.9883 34.8525 41.9883 34.8643 41.9883C35.0866 41.9883 35.2667 42.1789 35.265 42.4136C35.265 42.4172 35.265 42.4207 35.265 42.4242L35.2549 42.7877C35.2499 43.0171 35.0697 43.1989 34.8525 43.1989H30.5962C30.3739 43.1989 30.1938 43.0101 30.1938 42.7772L30.1921 42.7754ZM35.9419 46.2112V48.4717H29.6314L30.0624 46.2112H35.9419ZM40.9727 53.3687C40.9727 53.9916 40.4895 54.4981 39.8952 54.4981H26.9543C26.36 54.4981 25.8768 53.9916 25.8768 53.3687V51.1082C25.8768 50.4852 26.36 49.9788 26.9543 49.9788H36.6574C37.0548 49.9788 37.3764 49.6417 37.3764 49.2253V46.2112H40.9693V53.3687H40.9727ZM34.6774 30.3698L37.1575 29.7204L40.2016 32.9127C40.0551 33.9715 39.8026 36.8514 40.971 38.8984V44.7077H34.8492C35.8476 44.713 36.6658 43.8783 36.6894 42.8336L36.6995 42.4701C36.7063 42.2372 36.6709 42.0042 36.5985 41.7836C37.4925 41.4819 38.0987 40.6084 38.097 39.6237V39.2372C38.1003 38.182 37.405 37.2643 36.4234 37.0296C37.6609 36.2091 38.0296 34.4938 37.2467 33.1968C36.947 32.7009 36.5076 32.318 35.9873 32.1009L32.3943 30.5939C32.3792 30.5868 32.364 30.5815 32.3472 30.5762V30.2992C33.1015 30.5586 33.9113 30.5833 34.6774 30.3715V30.3698ZM37.9084 24.3928L32.7294 25.8734H28.7525V11.3678C28.7525 10.2243 29.6381 9.29785 30.7292 9.29609H32.6806L33.9046 11.2213C34.0376 11.4313 34.2615 11.5566 34.5023 11.5566H43.1278C43.3181 11.5566 43.5016 11.4772 43.6363 11.336L45.5827 9.29609H46.9027C47.9937 9.29609 48.8776 10.2243 48.8793 11.3678V23.0446C48.8793 24.1881 47.9937 25.1146 46.9027 25.1163H43.8485C43.6582 25.1163 43.4747 25.1958 43.34 25.3369L41.9509 26.7928L38.4842 24.4811C38.3142 24.3664 38.1054 24.3346 37.9101 24.3893L37.9084 24.3928Z" fill="#22BCFF"/>
<path d="M40.9705 13.8125H43.8462V15.3195H40.9705V13.8125Z" fill="#22BCFF"/>
<path d="M40.9705 16.8281H43.8462V18.3352H40.9705V16.8281Z" fill="#22BCFF"/>
<path d="M40.9705 19.8438H43.8462V21.3508H40.9705V19.8438Z" fill="#22BCFF"/>
<path d="M34.141 20.2188H30.548C30.1507 20.2188 29.8291 20.5558 29.8291 20.9723V23.2328C29.8291 23.6493 30.1507 23.9863 30.548 23.9863H34.141C34.5384 23.9863 34.86 23.6493 34.86 23.2328V20.9723C34.86 20.5558 34.5384 20.2188 34.141 20.2188ZM33.4221 22.4793H31.2653V21.7258H33.4221V22.4793Z" fill="#22BCFF"/>
</svg>
