<svg width="57" height="56" viewBox="0 0 57 56" fill="none" xmlns="http://www.w3.org/2000/svg">
<path opacity="0.1" d="M44.8969 25.9787C44.8969 38.668 35.5744 48.9573 24.0734 48.9573C12.5725 48.9573 3.25 38.67 3.25 25.9787C3.25 13.2873 12.5725 3 24.0734 3C29.5976 3 34.8936 5.42158 38.798 9.73008C42.7042 14.0386 44.8969 19.8847 44.8969 25.9787Z" fill="#22BCFF"/>
<path d="M5.57127 14.226C21.9333 14.226 27.8819 12.9108 28.0357 24.2265C28.2355 38.8984 25.988 48.4754 39.1105 49.3418C51.5558 50.1614 52.493 34.426 52.493 34.426C52.493 34.426 52.3498 48.8891 41.8585 50.8209C31.3672 52.7527 25.1976 46.1475 24.4903 40.8965C24.0234 37.429 24.5132 29.3994 24.0747 23.9904C23.8554 21.28 21.3197 19.1706 18.8565 19.0574L5.55005 18.8311L5.57127 14.226Z" fill="#22BCFF"/>
<path d="M38.1048 53.0002C29.8663 53.0002 23.1663 45.6048 23.1663 36.5155V24.5267C23.1663 22.0466 21.3379 20.0309 19.0921 20.0309H5.05893C4.5585 20.0309 4.15356 19.584 4.15356 19.0318V9.04106C4.15356 8.49079 4.5585 8.04199 5.05893 8.04199H19.0921C27.3306 8.04199 34.0307 15.4355 34.0307 24.5267V36.5155C34.0307 38.9957 35.8591 41.0114 38.1048 41.0114C40.3506 41.0114 42.179 38.9957 42.179 36.5155V9.04106C42.179 8.49079 42.5839 8.04199 43.0844 8.04199C43.5848 8.04199 43.9897 8.48884 43.9897 9.04106V36.5155C43.9897 40.0962 41.3497 43.0095 38.1048 43.0095C34.86 43.0095 32.2199 40.0962 32.2199 36.5155V24.5267C32.2199 16.538 26.3315 10.0401 19.0921 10.0401H5.9643V18.0327H19.0921C22.3369 18.0327 24.977 20.946 24.977 24.5267V36.5155C24.977 44.5023 30.8654 51.0021 38.1048 51.0021C45.3442 51.0021 51.2327 44.5023 51.2327 36.5155V9.04106C51.2327 8.49079 51.6376 8.04199 52.138 8.04199C52.6385 8.04199 53.0434 8.48884 53.0434 9.04106V36.5155C53.0434 45.6048 46.3433 53.0002 38.1048 53.0002Z" fill="#22BCFF"/>
</svg>
