<svg width="57" height="56" viewBox="0 0 57 56" fill="none" xmlns="http://www.w3.org/2000/svg">
<path opacity="0.1" d="M48.4173 18C48.4173 27.9416 39.4616 36 28.413 36C17.3644 36 8.40869 27.9416 8.40869 18C8.40869 8.05842 17.3644 0 28.413 0C39.4616 0 48.4173 8.05842 48.4173 18Z" fill="#22BCFF"/>
<path opacity="0.1" d="M31.5715 39H41.0473V24H31.5715V39Z" fill="#22BCFF"/>
<path d="M31.126 26.625H37.5947V45.4575H31.126V26.625Z" fill="#22BCFF"/>
<path d="M28.2536 49.2189H26.4571C25.4654 49.2189 24.6606 50.0624 24.6606 51.1018V53.3624C24.6606 54.4018 25.4654 55.2453 26.4571 55.2453H39.3946C40.3863 55.2453 41.1911 54.4018 41.1911 53.3624V45.4531H28.9726L28.2536 49.2189Z" fill="#22BCFF"/>
<path d="M41.5469 27.7492L43.3434 25.8663H46.3976C47.886 25.8663 49.0932 24.6011 49.0932 23.0411V11.3643C49.0932 9.80433 47.886 8.53906 46.3976 8.53906H44.7796L42.6228 10.7996H33.9973L32.5594 8.53906H30.2241C28.7358 8.53906 27.5286 9.80433 27.5286 11.3643V26.6199H32.3203" fill="#22BCFF"/>
<path d="M11.5391 13.8125H18.9069V22.8529H11.5391C10.0507 22.8529 8.84351 21.5876 8.84351 20.0277V16.6377C8.84351 15.0778 10.0507 13.8125 11.5391 13.8125Z" fill="#22BCFF"/>
<path d="M11.328 32.2386L12.5571 29.8828L13.7862 32.2386L16.0339 33.5269L13.7862 34.8151L12.5571 37.1709L11.328 34.8151L9.08032 33.5269L11.328 32.2386Z" fill="#22BCFF"/>
<path d="M36.1607 45.4531H28.9731L28.2542 49.2189H36.1607V45.4531Z" fill="#22BCFF"/>
<path d="M29.0886 32.4236C29.4859 31.3842 30.6106 30.8778 31.6023 31.2942L35.1936 32.7995C36.1853 33.2159 36.6685 34.3947 36.2712 35.4341C35.8738 36.4735 34.7491 36.98 33.7574 36.5635L30.1661 35.0583C29.1744 34.6418 28.6912 33.463 29.0886 32.4236Z" fill="white"/>
<path d="M28.2542 38.0355V38.8737C28.2542 39.6484 28.7744 40.3172 29.5001 40.4707C30.9868 40.7884 33.5207 41.2384 35.5193 41.129C36.2837 41.0848 36.883 40.4196 36.8797 39.6166V39.2302C36.8797 38.4873 36.3645 37.8537 35.6641 37.7355C34.3407 37.5149 32.1586 37.0967 30.2746 36.4808C29.4546 36.2126 28.5825 36.6908 28.3249 37.5484C28.2777 37.7055 28.2542 37.8696 28.2542 38.0355Z" fill="white"/>
<path d="M28.9722 42.7732C28.9722 43.4226 29.4739 43.9484 30.0935 43.9484H34.3499C34.9577 43.9484 35.4544 43.442 35.4712 42.8067L35.4813 42.4432C35.4981 41.7938 35.0116 41.252 34.392 41.2344C34.3515 41.2344 34.3095 41.2344 34.269 41.2379L30.0026 41.6014C29.42 41.6508 28.9722 42.1608 28.9722 42.7732Z" fill="#FFBE92"/>
<path d="M51.2493 30.39H45.4995L37.5929 25.1172L29.6863 27.3777C29.6863 27.3777 31.1241 30.3918 33.9982 29.6383L36.8739 28.8848L40.4669 32.6506C40.4669 32.6506 39.748 36.4164 41.1859 38.6769V46.2103C41.1859 46.2103 44.0616 45.4568 45.4978 42.4445H51.2476V30.3918L51.2493 30.39Z" fill="white"/>
<path d="M23.2203 32.6478C24.4114 32.6478 25.3771 31.4675 25.3771 30.0114C25.3771 28.5554 24.4114 27.375 23.2203 27.375C22.0291 27.375 21.0635 28.5554 21.0635 30.0114C21.0635 31.4675 22.0291 32.6478 23.2203 32.6478Z" fill="white"/>
<path d="M27.5349 26.6249H21.605C20.1166 26.6249 18.9094 25.3597 18.9094 23.7997V13.6299C18.9094 12.07 20.1166 10.8047 21.605 10.8047H27.5888" fill="white"/>
<path opacity="0.3" d="M8.90134 16.073H18.9109V13.8125H11.5414C10.2601 13.8125 9.15558 14.7566 8.89966 16.073H8.90134Z" fill="#FAFCFC"/>
<path opacity="0.3" d="M46.4029 8.53906H44.7849L42.6281 10.7996H34.0025L32.5647 8.53906H30.2294C28.9481 8.53906 27.8436 9.48316 27.5877 10.7996H21.6039C20.3226 10.7996 19.2181 11.7437 18.9622 13.0601H49.0968V11.3643C49.0968 9.80433 47.8896 8.53906 46.4012 8.53906H46.4029Z" fill="#FAFCFC"/>
<path d="M24.657 39.4281C24.657 37.764 23.369 36.4141 21.7813 36.4141C20.1935 36.4141 18.9055 37.764 18.9055 39.4281C18.9055 41.0922 20.1935 42.4422 21.7813 42.4422C23.369 42.4404 24.6553 41.0922 24.657 39.4281ZM20.3451 39.4281C20.3451 38.5952 20.9882 37.9211 21.7829 37.9211C22.5776 37.9211 23.2208 38.5952 23.2208 39.4281C23.2208 40.261 22.5776 40.9351 21.7829 40.9351C20.9899 40.9351 20.3468 40.261 20.3451 39.4281Z" fill="#22BCFF"/>
<path d="M16.7527 33.5232C16.7527 33.2479 16.6096 32.9938 16.3789 32.8614L14.3164 31.6791L13.1883 29.5174C12.9981 29.1521 12.5603 29.018 12.2135 29.2174C12.0922 29.2862 11.9946 29.3903 11.9272 29.5174L10.7992 31.6791L8.73665 32.8614C8.38813 33.0608 8.26017 33.5196 8.45042 33.8831C8.51609 34.0102 8.61543 34.1125 8.73665 34.1831L10.7992 35.3655L11.9272 37.5272C12.1175 37.8925 12.5553 38.0266 12.9021 37.8272C13.0233 37.7584 13.121 37.6542 13.1883 37.5272L14.3164 35.3655L16.3789 34.1831C16.6096 34.0508 16.7527 33.7967 16.7527 33.5214V33.5232ZM13.4426 34.1496C13.3213 34.2184 13.222 34.3225 13.1563 34.4496L12.5586 35.5966L11.9609 34.4496C11.8952 34.3225 11.7959 34.2184 11.6747 34.1496L10.5803 33.5232L11.6747 32.8967C11.7959 32.8279 11.8952 32.7238 11.9609 32.5967L12.5586 31.4497L13.1563 32.5967C13.222 32.7238 13.3213 32.8279 13.4426 32.8967L14.537 33.5232L13.4426 34.1496Z" fill="#22BCFF"/>
<path d="M12.4407 9.29688H13.8785V10.8039H12.4407V9.29688Z" fill="#22BCFF"/>
<path d="M13.8767 40.9375H15.3146V42.4445H13.8767V40.9375Z" fill="#22BCFF"/>
<path d="M5.96777 27.375H7.40564V28.882H5.96777V27.375Z" fill="#22BCFF"/>
<path d="M42.6918 27.6204L43.6448 26.6216H46.4027C48.2867 26.6198 49.8155 25.0193 49.8172 23.0429V11.3678C49.8155 9.39315 48.2884 7.79083 46.4027 7.78906H44.7846C44.5944 7.78906 44.4109 7.86847 44.2762 8.00965L42.3298 10.0496H41.19V8.54258C41.19 8.12611 40.8684 7.78906 40.471 7.78906H36.1591C35.7618 7.78906 35.4402 8.12611 35.4402 8.54258V10.0496H34.3879L33.1638 8.12435C33.0308 7.91435 32.8069 7.78906 32.5661 7.78906H30.2309C28.8317 7.79083 27.574 8.68551 27.0571 10.0496H21.6053C19.9284 10.0514 18.5006 11.3272 18.2346 13.0637H11.5403C9.86498 13.0654 8.43722 14.3413 8.16951 16.0742L5.75511 16.8648C5.45541 16.9636 5.25168 17.2547 5.25 17.583V19.8435C5.25 20.1894 5.47393 20.4911 5.79383 20.5741L8.32441 21.2376C8.811 22.6599 10.0973 23.6093 11.5386 23.6111H18.1874V23.7999C18.1891 25.7005 19.6085 27.2692 21.4201 27.3734C20.7231 28.0563 20.3325 29.0145 20.3442 30.0151C20.3442 31.8839 21.634 33.405 23.22 33.405C24.215 33.405 25.0922 32.8068 25.6091 31.898H28.5472C28.5084 31.9774 28.4731 32.0568 28.4411 32.1397C27.9293 33.4791 28.4815 35.0073 29.7106 35.6567C28.4933 35.7114 27.5336 36.7614 27.5319 38.039V38.8772C27.5353 39.9113 28.1734 40.8272 29.1129 41.1448C28.2525 41.7095 27.9916 42.8989 28.5303 43.8007C28.8671 44.3636 29.4564 44.7059 30.0911 44.7042H28.9698C28.6263 44.7042 28.3317 44.9583 28.2643 45.3094L27.6615 48.47H26.4543C25.0653 48.47 23.9406 49.6505 23.9389 51.1064V53.3669C23.9389 54.8228 25.0653 56.0016 26.4543 56.0033H39.3918C40.7808 56.0033 41.9055 54.8228 41.9072 53.3669V46.753C42.8332 46.3824 44.719 45.3977 45.9295 43.1971H51.25V41.6901H45.5002C45.2274 41.6901 44.9799 41.8507 44.857 42.1066C44.0674 43.7618 42.7726 44.6636 41.9055 45.1083V38.6778C41.9055 38.5296 41.8634 38.3831 41.7843 38.2596C40.5316 36.2902 41.1664 32.8332 41.1714 32.7979C41.2186 32.5509 41.1445 32.295 40.9745 32.1168L37.3815 28.351C37.203 28.1639 36.9437 28.088 36.6979 28.1533L33.8222 28.9069C32.3994 29.2792 31.4061 28.4904 30.8504 27.8251L37.4724 25.9316L45.1113 31.0262C45.2274 31.1039 45.3605 31.1445 45.4968 31.1427H51.2466V29.6357H45.7056L42.6851 27.6204H42.6918ZM36.878 9.29609H39.7538V10.0496H36.878V9.29609ZM26.8147 22.1023H19.627V20.5953H26.8147V22.1023ZM26.8147 19.0882H19.627V17.5812H26.8147V19.0882ZM26.8147 16.0742H19.627V14.5672H26.8147V16.0742ZM21.6036 11.5549H26.8147V13.0619H19.7028C19.9452 12.1707 20.7197 11.5566 21.6036 11.5549ZM6.68955 18.1353L8.12742 17.6641V19.63L6.68955 19.2541V18.1353ZM11.5419 22.1023C10.658 22.1023 9.88182 21.4864 9.64105 20.5953H13.8789V19.0882H9.5636V17.5812H13.8755V16.0742H9.63937C9.88182 15.183 10.6563 14.5689 11.5403 14.5672H18.1891V22.1005H11.5403L11.5419 22.1023ZM19.6287 23.7981V23.6093H26.8163V25.8699H21.6053C20.5143 25.8699 19.6304 24.9416 19.6287 23.7981ZM23.2217 31.8962C22.4287 31.8962 21.7838 31.0509 21.7838 30.0133C21.7838 28.9757 22.4287 28.1304 23.2217 28.1304C24.0147 28.1304 24.6595 28.9757 24.6595 30.0133C24.6595 31.0509 24.0147 31.8962 23.2217 31.8962ZM26.0974 27.3769H28.9731C28.9731 27.4934 28.9984 27.6098 29.0489 27.7139C29.384 28.3863 29.8487 28.9792 30.411 29.4574V30.3909H26.0991V27.3769H26.0974ZM29.7796 32.6991C29.9648 32.2156 30.411 31.898 30.9077 31.8962H30.9111C31.066 31.8962 31.2175 31.928 31.3606 31.988L34.9536 33.495C35.5782 33.7562 35.8813 34.4991 35.6321 35.152C35.3829 35.8067 34.6741 36.1244 34.0511 35.8632L30.4582 34.3562C29.8352 34.0932 29.5321 33.3521 29.7813 32.6991H29.7796ZM28.9731 38.039C28.9731 37.5555 29.3469 37.1637 29.8083 37.162C29.8941 37.162 29.98 37.1761 30.0608 37.2026C31.9381 37.8149 34.0831 38.2367 35.5513 38.4819C35.9032 38.5402 36.1625 38.8596 36.1608 39.2319V39.6184C36.1625 40.0207 35.8645 40.3543 35.4806 40.3772C33.5292 40.4848 30.9851 40.019 29.6432 39.7331C29.2543 39.6484 28.9748 39.2902 28.9731 38.8737V38.0355V38.039ZM29.6921 42.7754C29.6921 42.5566 29.8537 42.373 30.0625 42.3536L34.3289 41.9883C34.3407 41.9883 34.3525 41.9883 34.3643 41.9883C34.5866 41.9883 34.7667 42.1789 34.765 42.4136C34.765 42.4172 34.765 42.4207 34.765 42.4242L34.7549 42.7877C34.7499 43.0171 34.5697 43.1989 34.3525 43.1989H30.0962C29.8739 43.1989 29.6938 43.0101 29.6938 42.7772L29.6921 42.7754ZM35.4419 46.2112V48.4717H29.1314L29.5624 46.2112H35.4419ZM40.4727 53.3687C40.4727 53.9916 39.9895 54.4981 39.3952 54.4981H26.4543C25.86 54.4981 25.3768 53.9916 25.3768 53.3687V51.1082C25.3768 50.4852 25.86 49.9788 26.4543 49.9788H36.1574C36.5548 49.9788 36.8764 49.6417 36.8764 49.2253V46.2112H40.4693V53.3687H40.4727ZM34.1774 30.3698L36.6575 29.7204L39.7016 32.9127C39.5551 33.9715 39.3026 36.8514 40.471 38.8984V44.7077H34.3492C35.3476 44.713 36.1658 43.8783 36.1894 42.8336L36.1995 42.4701C36.2063 42.2372 36.1709 42.0042 36.0985 41.7836C36.9925 41.4819 37.5987 40.6084 37.597 39.6237V39.2372C37.6003 38.182 36.905 37.2643 35.9234 37.0296C37.1609 36.2091 37.5296 34.4938 36.7467 33.1968C36.447 32.7009 36.0076 32.318 35.4873 32.1009L31.8943 30.5939C31.8792 30.5868 31.864 30.5815 31.8472 30.5762V30.2992C32.6015 30.5586 33.4113 30.5833 34.1774 30.3715V30.3698ZM37.4084 24.3928L32.2294 25.8734H28.2525V11.3678C28.2525 10.2243 29.1381 9.29785 30.2292 9.29609H32.1806L33.4046 11.2213C33.5376 11.4313 33.7615 11.5566 34.0023 11.5566H42.6278C42.8181 11.5566 43.0016 11.4772 43.1363 11.336L45.0827 9.29609H46.4027C47.4937 9.29609 48.3776 10.2243 48.3793 11.3678V23.0446C48.3793 24.1881 47.4937 25.1146 46.4027 25.1163H43.3485C43.1582 25.1163 42.9747 25.1958 42.84 25.3369L41.4509 26.7928L37.9842 24.4811C37.8142 24.3664 37.6054 24.3346 37.4101 24.3893L37.4084 24.3928Z" fill="#22BCFF"/>
<path d="M40.4705 13.8125H43.3462V15.3195H40.4705V13.8125Z" fill="#22BCFF"/>
<path d="M40.4705 16.8281H43.3462V18.3352H40.4705V16.8281Z" fill="#22BCFF"/>
<path d="M40.4705 19.8438H43.3462V21.3508H40.4705V19.8438Z" fill="#22BCFF"/>
<path d="M33.641 20.2188H30.048C29.6507 20.2188 29.3291 20.5558 29.3291 20.9723V23.2328C29.3291 23.6493 29.6507 23.9863 30.048 23.9863H33.641C34.0384 23.9863 34.36 23.6493 34.36 23.2328V20.9723C34.36 20.5558 34.0384 20.2188 33.641 20.2188ZM32.9221 22.4793H30.7653V21.7258H32.9221V22.4793Z" fill="#22BCFF"/>
</svg>
