<svg width="57" height="56" viewBox="0 0 57 56" fill="none" xmlns="http://www.w3.org/2000/svg">
<path opacity="0.1" d="M47.2977 20.773C47.2977 32.2461 37.5658 41.546 25.5595 41.546C13.5533 41.546 3.82129 32.2461 3.82129 20.773C3.82129 9.29986 13.5533 0 25.5577 0C37.5621 0 47.2959 9.29986 47.2959 20.773H47.2977Z" fill="#22BCFF"/>
<path d="M7.12928 10.8373C5.30545 10.8373 3.82129 9.41908 3.82129 7.67624C3.82129 5.9334 5.30545 4.51514 7.12928 4.51514C8.95311 4.51514 10.4373 5.9334 10.4373 7.67624C10.4373 9.41908 8.95311 10.8373 7.12928 10.8373ZM7.12928 6.32148C6.34843 6.32148 5.71157 6.93007 5.71157 7.67624C5.71157 8.42242 6.34843 9.031 7.12928 9.031C7.91013 9.031 8.54699 8.42242 8.54699 7.67624C8.54699 6.93007 7.91013 6.32148 7.12928 6.32148Z" fill="#22BCFF"/>
<path d="M42.7259 5.72601C42.4841 5.72601 42.2423 5.63781 42.0577 5.46141C41.6885 5.10861 41.6885 4.53707 42.0577 4.18427L45.5299 0.866164C45.8991 0.513362 46.4972 0.513362 46.8664 0.866164C47.2356 1.21897 47.2356 1.79051 46.8664 2.14331L43.3941 5.46141C43.2095 5.63781 42.9677 5.72601 42.7259 5.72601Z" fill="#22BCFF"/>
<path d="M46.1982 5.72601C45.9564 5.72601 45.7145 5.63781 45.5299 5.46141L42.0577 2.14331C41.6885 1.79051 41.6885 1.21897 42.0577 0.866164C42.4269 0.513362 43.025 0.513362 43.3941 0.866164L46.8664 4.18427C47.2356 4.53707 47.2356 5.10861 46.8664 5.46141C46.6818 5.63781 46.44 5.72601 46.1982 5.72601Z" fill="#22BCFF"/>
<path d="M44.4628 55.0929H10.4377V47.6629C10.4377 44.3165 12.4536 41.2842 15.5825 39.9259L27.4503 34.7715L39.3181 39.9259C42.447 41.2842 44.4628 44.3165 44.4628 47.6629V55.0929Z" fill="#22BCFF"/>
<path d="M44.4599 55.9939H10.4349C9.91247 55.9939 9.48975 55.5899 9.48975 55.0907V47.6607C9.48975 43.9651 11.7271 40.6046 15.1883 39.1017L27.0561 33.9473C27.3034 33.8379 27.5896 33.8379 27.8369 33.9473L39.7047 39.1017C43.1659 40.6046 45.4051 43.9651 45.4051 47.6607V55.0907C45.4051 55.5881 44.9805 55.9939 44.4599 55.9939ZM11.38 54.1875H43.5148V47.6607C43.5148 44.6707 41.7131 41.9559 38.9239 40.7458L27.4474 35.7607L15.971 40.744C13.1817 41.9559 11.38 44.6707 11.38 47.6589V54.1857V54.1875Z" fill="#22BCFF"/>
<path opacity="0.1" d="M27.4473 39.7374C25.3595 39.7374 23.6667 38.1198 23.6667 36.1247V34.3184H31.2279V36.1247C31.2279 38.1198 29.5351 39.7374 27.4473 39.7374Z" fill="#22BCFF"/>
<path d="M27.4484 40.6453C24.8418 40.6453 22.7227 38.6202 22.7227 36.1294V34.3231C22.7227 33.8239 23.1454 33.4199 23.6678 33.4199H31.2289C31.7513 33.4199 32.1741 33.8239 32.1741 34.3231V36.1294C32.1741 38.6202 30.053 40.6453 27.4484 40.6453ZM24.6129 35.2263V36.1294C24.6129 37.6236 25.8848 38.839 27.4484 38.839C29.0119 38.839 30.2838 37.6236 30.2838 36.1294V35.2263H24.6129Z" fill="#22BCFF"/>
<path d="M27.6272 36.241C26.8721 36.241 26.1264 36.1316 25.412 35.9111C20.8764 34.5158 17.3949 31.0089 16.1452 26.6448C15.5212 26.6589 14.9231 26.4701 14.338 26.0944C13.4131 25.4982 12.839 24.565 12.8021 23.6001C12.7707 22.7322 13.0993 21.9119 13.7288 21.2892C14.1497 20.8729 14.6684 20.5801 15.2351 20.4337C15.2351 20.2132 15.2314 19.908 15.2203 19.49C15.1834 18.241 16.016 17.1174 17.2454 16.7575C23.8761 14.8118 31.1271 14.5878 37.66 16.1295C39.4266 16.5458 40.6413 18.0629 40.6154 19.8181C40.6118 20.0756 40.6099 20.2785 40.6118 20.4372C41.2265 20.5978 41.7858 20.9276 42.2178 21.3916C42.8454 22.0689 43.1389 22.9774 43.0226 23.8823C42.9063 24.7855 42.3137 25.6375 41.4351 26.1597C40.8647 26.5001 40.2684 26.6677 39.6574 26.6448C38.3707 30.919 34.9188 34.3623 30.4644 35.7418L30.0454 35.8723C29.2442 36.1193 28.432 36.2445 27.6308 36.2445L27.6272 36.241ZM16.8577 24.7114C17.022 24.7114 17.1845 24.752 17.3303 24.8314C17.5647 24.9601 17.729 25.1789 17.7844 25.4329C18.6668 29.5501 21.8123 32.9052 25.9916 34.1912C27.0715 34.5228 28.3028 34.5087 29.4602 34.1506L29.8811 34.0219C33.9884 32.75 37.1099 29.4513 38.0311 25.4135C38.0883 25.1595 38.2581 24.9425 38.4944 24.8173C38.7307 24.6903 39.0131 24.6691 39.2679 24.7555C39.698 24.9002 40.034 24.8631 40.4327 24.625C40.8296 24.3886 41.0954 24.0287 41.1416 23.6601C41.1932 23.2632 41.0714 22.8821 40.7982 22.5876C40.5287 22.2965 40.141 22.1289 39.7349 22.1289C39.482 22.1289 39.2291 22.0284 39.0519 21.8555C38.7418 21.5556 38.6993 21.2857 38.7215 19.7898C38.7344 18.8796 38.1105 18.0946 37.2041 17.8812C30.9979 16.417 24.1069 16.6323 17.7973 18.4827C17.3783 18.6044 17.094 18.9978 17.1069 19.437C17.1605 21.3069 17.0995 21.5468 16.795 21.8484C16.6177 22.0231 16.3612 22.1271 16.1064 22.1271C15.7188 22.1271 15.3551 22.2736 15.0856 22.5417C14.8161 22.8098 14.6758 23.1609 14.6887 23.5331C14.7035 23.9176 14.973 24.3251 15.392 24.5968C15.8517 24.8931 16.1895 24.8755 16.555 24.7573C16.6528 24.7255 16.7543 24.7097 16.8559 24.7097L16.8577 24.7114Z" fill="#22BCFF"/>
<path d="M33.5917 24.8393C33.5917 25.3385 33.169 25.7425 32.6466 25.7425C32.1241 25.7425 31.7014 25.3385 31.7014 24.8393C31.7014 24.34 32.1241 23.936 32.6466 23.936C33.169 23.936 33.5917 24.34 33.5917 24.8393Z" fill="#22BCFF"/>
<path d="M24.1349 24.8393C24.1349 25.3385 23.7122 25.7425 23.1898 25.7425C22.6674 25.7425 22.2446 25.3385 22.2446 24.8393C22.2446 24.34 22.6674 23.936 23.1898 23.936C23.7122 23.936 24.1349 24.34 24.1349 24.8393Z" fill="#22BCFF"/>
<path d="M21.7744 17.1576C23.8973 19.4755 32.171 25.2862 39.7321 20.7703C39.7321 19.8671 39.7247 20.257 39.7321 19.8671C39.7524 18.5776 38.7759 17.3199 37.4652 17.0112C33.5185 16.078 24.6098 15.3513 21.7744 17.1576Z" fill="#22BCFF"/>
<path d="M33.6706 23.3669C27.6601 23.3669 22.4729 19.292 21.0644 17.7556C20.8853 17.5597 20.8023 17.3004 20.8392 17.0429C20.8742 16.7853 21.0256 16.5543 21.2508 16.4096C24.6419 14.2505 34.2557 15.3247 37.6948 16.1362C39.4226 16.5454 40.7056 18.156 40.6797 19.8829L40.676 20.1176L40.6797 20.772C40.6797 21.0842 40.5118 21.3735 40.2349 21.5376C38.0326 22.8535 35.8008 23.3651 33.6724 23.3651L33.6706 23.3669ZM23.4291 17.4416C26.0873 19.6483 32.646 23.5609 38.7858 20.2622V20.1405L38.7876 19.8583C38.8024 18.978 38.1064 18.096 37.2388 17.8914C33.4047 16.9847 26.6355 16.5313 23.4291 17.4416Z" fill="#22BCFF"/>
<path d="M40.6796 17.1617H14.2139V14.9038C14.2139 8.16878 19.9272 2.71094 26.9733 2.71094H27.9184C34.9645 2.71094 40.6778 8.17055 40.6778 14.9038V17.1617H40.6796Z" fill="#22BCFF"/>
<path d="M40.6809 18.0618H14.2152C13.6946 18.0618 13.27 17.6578 13.27 17.1586V14.9007C13.27 7.67884 19.4171 1.80469 26.9746 1.80469H27.9197C35.4753 1.80469 41.6242 7.67884 41.6242 14.9007V17.1586C41.6242 17.6578 41.2015 18.0618 40.6791 18.0618H40.6809ZM15.1621 16.2555H39.7358V14.9007C39.7358 8.67551 34.436 3.61103 27.9215 3.61103H26.9764C20.4619 3.61103 15.1621 8.67551 15.1621 14.9007V16.2555Z" fill="#22BCFF"/>
<path d="M17.1171 20.7531C19.2732 20.2079 21.42 18.218 22.8581 16.6162C21.3222 16.8826 19.8067 17.2266 18.3262 17.6623C17.5693 17.8864 17.0765 18.5797 17.1004 19.3365C17.1152 19.8375 17.1263 20.3791 17.1152 20.7548L17.1171 20.7531Z" fill="#22BCFF"/>
<path d="M17.1169 21.6518C16.9065 21.6518 16.6997 21.5847 16.5299 21.4577C16.2955 21.2813 16.1644 21.0097 16.1718 20.7257C16.181 20.364 16.1718 19.8419 16.157 19.3586C16.1201 18.189 16.8991 17.1341 18.0491 16.7955C19.5185 16.3633 21.0802 16.0016 22.6899 15.7247C23.0794 15.6559 23.48 15.8323 23.6794 16.1639C23.8787 16.4956 23.8363 16.9119 23.576 17.2012C22.0641 18.884 19.7585 21.015 17.3588 21.6235C17.2794 21.6429 17.1963 21.6535 17.1169 21.6535V21.6518ZM19.9284 18.159C19.4798 18.2719 19.0386 18.3936 18.6066 18.5207C18.267 18.6212 18.0362 18.944 18.0473 19.3039C18.0473 19.3427 18.051 19.3797 18.051 19.4185C18.6472 19.1134 19.2767 18.69 19.9302 18.159H19.9284Z" fill="#22BCFF"/>
<path d="M39.7358 18.9635H15.1603C14.1173 18.9635 13.27 18.1538 13.27 17.157C13.27 16.1603 14.1173 15.3506 15.1603 15.3506H39.7358C40.7806 15.3506 41.6261 16.1603 41.6261 17.157C41.6261 18.1538 40.7806 18.9635 39.7358 18.9635Z" fill="#22BCFF"/>
<path d="M39.7368 19.8712H15.1614C13.5978 19.8712 12.3259 18.6558 12.3259 17.1617C12.3259 15.6676 13.5978 14.4521 15.1614 14.4521H39.7368C41.3004 14.4521 42.5723 15.6676 42.5723 17.1617C42.5723 18.6558 41.3004 19.8712 39.7368 19.8712ZM15.1632 16.2585C14.6426 16.2585 14.2181 16.6642 14.2181 17.1617C14.2181 17.6591 14.6426 18.0648 15.1632 18.0648H39.7368C40.2574 18.0648 40.682 17.6591 40.682 17.1617C40.682 16.6642 40.2574 16.2585 39.7368 16.2585H15.1614H15.1632Z" fill="#22BCFF"/>
<path d="M26.3369 13.5405C26.0987 13.5405 25.8588 13.4541 25.676 13.283C25.3031 12.9337 25.2976 12.3622 25.6631 12.0059L26.9091 10.7905L25.7609 10.7552C25.4028 10.7446 25.0816 10.54 24.9321 10.2295C24.7826 9.91904 24.8306 9.55389 25.0539 9.28752L27.6346 6.21285C27.9613 5.82301 28.5576 5.76127 28.9637 6.0735C29.3717 6.38572 29.4363 6.95374 29.1095 7.34358L27.7121 9.01057L29.1206 9.05467C29.4953 9.06702 29.8276 9.28752 29.9679 9.62092C30.1064 9.95432 30.027 10.3336 29.7649 10.5894L27.0125 13.2724C26.8279 13.4541 26.5824 13.5441 26.3369 13.5441V13.5405Z" fill="#22BCFF"/>
<path d="M52.9841 5.8667L46.8555 14.9743H50.2595L47.5366 22.1309L54.3446 13.0233H51.6218L52.9841 5.8667Z" fill="#22BCFF"/>
<path d="M47.5388 23.0325C47.3893 23.0325 47.2379 22.999 47.0995 22.9284C46.6804 22.7185 46.4903 22.244 46.6509 21.8206L48.9122 15.8759H46.8577C46.5106 15.8759 46.1931 15.696 46.027 15.4049C45.8608 15.1156 45.8756 14.7628 46.062 14.4841L52.1888 5.37653C52.4325 5.01314 52.9106 4.86496 53.3315 5.02372C53.7505 5.18072 53.996 5.60232 53.9148 6.02568L52.7556 12.1168H54.3468C54.6994 12.1168 55.0243 12.3056 55.1867 12.6072C55.3492 12.9088 55.3215 13.2705 55.1147 13.5457L48.3067 22.6532C48.124 22.8984 47.8342 23.0307 47.537 23.0307L47.5388 23.0325ZM48.5892 14.0696H50.2616C50.5699 14.0696 50.8579 14.2142 51.0351 14.4541C51.2123 14.6958 51.2548 15.0045 51.1495 15.2814L50.7896 16.2234L52.5082 13.9249H51.6221C51.3415 13.9249 51.0757 13.805 50.8966 13.6003C50.7176 13.3939 50.6419 13.1241 50.6917 12.8595L51.2012 10.1852L48.5873 14.0696H48.5892Z" fill="#22BCFF"/>
<path d="M11.613 31.5983C11.613 29.0528 9.39412 26.9907 6.65469 26.9907C3.91526 26.9907 1.69824 29.0546 1.69824 31.5983C1.69824 32.9601 2.3351 34.1808 3.3467 35.0223C3.9208 35.5021 4.24015 36.2024 4.31953 36.9274L4.53182 38.8378H8.78126L8.99354 36.9274C9.07477 36.2024 9.39228 35.5003 9.96822 35.0223C10.978 34.1808 11.6148 32.9584 11.6148 31.5983H11.613Z" fill="#22BCFF"/>
<path d="M8.78 39.7379H4.52872C4.04507 39.7379 3.6408 39.3904 3.58911 38.93L3.37683 37.0196C3.31591 36.4692 3.08332 36 2.7215 35.7001C1.46809 34.6558 0.75 33.1599 0.75 31.5952C0.75 28.5558 3.39713 26.0845 6.65344 26.0845C9.90974 26.0845 12.5569 28.5558 12.5569 31.5952C12.5569 33.1599 11.8388 34.6558 10.5854 35.7001C10.2236 36.0017 9.99096 36.4692 9.93005 37.0213L9.7196 38.93C9.66792 39.3904 9.26365 39.7379 8.78 39.7379ZM5.37971 37.9316H7.92901L8.05084 36.8291C8.1616 35.8236 8.62125 34.9398 9.34302 34.3383C10.1848 33.6362 10.6666 32.6378 10.6666 31.5935C10.6666 29.5508 8.86676 27.8891 6.65344 27.8891C4.44011 27.8891 2.64213 29.5508 2.64213 31.5935C2.64213 32.636 3.12393 33.6362 3.96569 34.3383C4.68747 34.9398 5.14527 35.8236 5.25788 36.8291L5.37971 37.9316Z" fill="#22BCFF"/>
<path d="M6.65566 42.4464C5.61084 42.4464 4.76538 41.6367 4.76538 40.6399V38.8335H8.54594V40.6399C8.54594 41.6384 7.70049 42.4464 6.65566 42.4464Z" fill="#22BCFF"/>
<path d="M6.65671 43.3541C5.09317 43.3541 3.82129 42.1387 3.82129 40.6446V38.8382C3.82129 38.339 4.24402 37.9351 4.76643 37.9351H8.54699C9.0694 37.9351 9.49213 38.339 9.49213 38.8382V40.6446C9.49213 42.1387 8.22025 43.3541 6.65671 43.3541ZM5.71157 39.7414V40.6446C5.71157 41.142 6.13614 41.5478 6.65671 41.5478C7.17728 41.5478 7.60185 41.142 7.60185 40.6446V39.7414H5.71157Z" fill="#22BCFF"/>
<path d="M52.9682 55.092C51.4028 55.092 50.1328 53.8784 50.1328 52.3825V41.5444H55.8037V52.3825C55.8037 53.8784 54.5336 55.092 52.9682 55.092Z" fill="#22BCFF"/>
<path d="M52.9695 55.9999C50.8854 55.9999 49.189 54.3788 49.189 52.3872V41.5492C49.189 41.05 49.6117 40.646 50.1341 40.646H55.8049C56.3274 40.646 56.7501 41.05 56.7501 41.5492V52.3872C56.7501 54.3788 55.0536 55.9999 52.9695 55.9999ZM51.0792 42.4523V52.3872C51.0792 53.3839 51.9265 54.1936 52.9695 54.1936C54.0125 54.1936 54.8598 53.3839 54.8598 52.3872V42.4523H51.0792Z" fill="#22BCFF"/>
<path d="M52.9703 42.4502C52.4479 42.4502 52.0251 42.0463 52.0251 41.5471V31.6122C52.0251 31.1129 52.4479 30.709 52.9703 30.709C53.4927 30.709 53.9154 31.1129 53.9154 31.6122V41.5471C53.9154 42.0463 53.4927 42.4502 52.9703 42.4502Z" fill="#22BCFF"/>
<path d="M52.0231 25.2876H53.9134L55.8037 29.8035L52.9812 32.5006L50.1328 29.8035L52.0231 25.2876Z" fill="#22BCFF"/>
<path d="M52.9833 33.4085C52.7414 33.4085 52.5015 33.3203 52.3169 33.1475L49.4685 30.4503C49.199 30.1945 49.1159 29.81 49.2562 29.473L51.1465 24.9572C51.2905 24.6132 51.6376 24.3892 52.0252 24.3892H53.9155C54.3013 24.3892 54.6502 24.6132 54.7923 24.9572L56.6826 29.473C56.8229 29.8082 56.7398 30.191 56.4722 30.4468L53.6497 33.1439C53.4651 33.3203 53.2233 33.4085 52.9814 33.4085H52.9833ZM51.2444 29.5877L52.9796 31.23L54.6963 29.5895L53.2749 26.1937H52.6639L51.2444 29.5859V29.5877Z" fill="#22BCFF"/>
<path d="M6.65648 38.8373C6.13407 38.8373 5.71134 38.4334 5.71134 37.9341V34.0269L4.05365 32.2046C3.7103 31.8271 3.75276 31.2574 4.14595 30.931C4.54099 30.6029 5.13724 30.6435 5.47875 31.0192L7.36903 33.0955C7.51855 33.2595 7.59978 33.4694 7.59978 33.6882V37.9341C7.59978 38.4334 7.17705 38.8373 6.65463 38.8373H6.65648Z" fill="#22BCFF"/>
<path d="M6.65461 34.3219C6.41279 34.3219 6.17097 34.2337 5.98637 34.0573C5.61717 33.7044 5.61717 33.1329 5.98637 32.7801L7.87665 30.9736C8.24585 30.6208 8.84394 30.6208 9.21314 30.9736C9.58233 31.3264 9.58233 31.898 9.21314 32.2508L7.32286 34.0573C7.13826 34.2337 6.89644 34.3219 6.65461 34.3219Z" fill="#22BCFF"/>
<path d="M17.0513 55.999C16.5289 55.999 16.1062 55.595 16.1062 55.0958V50.5799C16.1062 50.0807 16.5289 49.6768 17.0513 49.6768C17.5738 49.6768 17.9965 50.0807 17.9965 50.5799V55.0958C17.9965 55.5932 17.5738 55.999 17.0513 55.999Z" fill="#22BCFF"/>
<path d="M38.7889 55.999C38.2665 55.999 37.8438 55.595 37.8438 55.0958V50.5799C37.8438 50.0807 38.2665 49.6768 38.7889 49.6768C39.3113 49.6768 39.734 50.0807 39.734 50.5799V55.0958C39.734 55.5932 39.3113 55.999 38.7889 55.999Z" fill="#22BCFF"/>
<path d="M31.2022 36.4043C31.0527 38.2689 29.4411 39.7418 27.4512 39.7418L32.1769 46.064L35.6085 38.3182L31.2022 36.4043Z" fill="#22BCFF"/>
<path d="M32.174 46.9665C31.8713 46.9665 31.5833 46.8272 31.4042 46.589L26.6785 40.2668C26.4736 39.9916 26.4459 39.63 26.6065 39.3284C26.769 39.0267 27.0939 38.838 27.4465 38.838C28.9085 38.838 30.1434 37.739 30.2542 36.3331C30.2782 36.0385 30.4499 35.7739 30.7157 35.6239C30.9815 35.474 31.3064 35.4564 31.5888 35.5798L35.9952 37.4938C36.4604 37.6966 36.6745 38.217 36.4733 38.6686L33.0416 46.4144C32.9087 46.716 32.6152 46.9242 32.2755 46.9612C32.2405 46.9648 32.2054 46.9665 32.1722 46.9665H32.174ZM29.0746 40.3638L31.9617 44.2252L34.3763 38.7762L31.8657 37.6843C31.3876 38.9226 30.3557 39.9052 29.0746 40.3638Z" fill="#22BCFF"/>
<path d="M27.4501 39.7418C25.4601 39.7418 23.8468 38.2689 23.6991 36.4043L19.2927 38.3182L22.7244 46.064L27.4501 39.7418Z" fill="#22BCFF"/>
<path d="M22.7248 46.9665C22.6898 46.9665 22.6565 46.9648 22.6215 46.9612C22.2818 46.9242 21.9883 46.716 21.8554 46.4144L18.4237 38.6686C18.2244 38.217 18.4366 37.6966 18.9018 37.4938L23.3082 35.5798C23.5888 35.4564 23.9155 35.474 24.1813 35.6239C24.4471 35.7739 24.6188 36.0385 24.6428 36.3331C24.7554 37.7372 25.9885 38.838 27.4524 38.838C27.805 38.838 28.1299 39.0267 28.2923 39.3284C28.4548 39.6282 28.4271 39.9916 28.2222 40.2668L23.4965 46.589C23.3174 46.8289 23.0313 46.9665 22.7267 46.9665H22.7248ZM20.5226 38.7762L22.9371 44.227L25.8242 40.3638C24.5431 39.907 23.5131 38.9244 23.0331 37.6861L20.5226 38.7762Z" fill="#22BCFF"/>
<path d="M35.954 50.577H31.2283C30.7078 50.577 30.2832 50.173 30.2832 49.6737C30.2832 49.1745 30.7059 48.7705 31.2283 48.7705H35.954C36.4765 48.7705 36.8992 49.1745 36.8992 49.6737C36.8992 50.173 36.4765 50.577 35.954 50.577Z" fill="#22BCFF"/>
<path d="M27.4481 55.9938C26.9257 55.9938 26.5029 55.5898 26.5029 55.0906V39.7367C26.5029 39.2375 26.9257 38.8335 27.4481 38.8335C27.9705 38.8335 28.3932 39.2375 28.3932 39.7367V55.0906C28.3932 55.5881 27.9705 55.9938 27.4481 55.9938Z" fill="#22BCFF"/>
</svg>
