<svg width="23" height="22" viewBox="0 0 23 22" fill="none" xmlns="http://www.w3.org/2000/svg">
<g clip-path="url(#clip0_141_552)">
<path d="M17.6667 1.83333H16.75V0.916667C16.75 0.673552 16.6534 0.440394 16.4815 0.268485C16.3096 0.0965771 16.0764 0 15.8333 0C15.5902 0 15.3571 0.0965771 15.1852 0.268485C15.0132 0.440394 14.9167 0.673552 14.9167 0.916667V1.83333H7.58333V0.916667C7.58333 0.673552 7.48676 0.440394 7.31485 0.268485C7.14294 0.0965771 6.90978 0 6.66667 0C6.42355 0 6.19039 0.0965771 6.01849 0.268485C5.84658 0.440394 5.75 0.673552 5.75 0.916667V1.83333H4.83333C3.6182 1.83479 2.45326 2.31814 1.59403 3.17737C0.734808 4.03659 0.251456 5.20154 0.25 6.41667L0.25 17.4167C0.251456 18.6318 0.734808 19.7967 1.59403 20.656C2.45326 21.5152 3.6182 21.9985 4.83333 22H17.6667C18.8818 21.9985 20.0467 21.5152 20.906 20.656C21.7652 19.7967 22.2485 18.6318 22.25 17.4167V6.41667C22.2485 5.20154 21.7652 4.03659 20.906 3.17737C20.0467 2.31814 18.8818 1.83479 17.6667 1.83333ZM2.08333 6.41667C2.08333 5.68732 2.37306 4.98785 2.88879 4.47212C3.40451 3.9564 4.10399 3.66667 4.83333 3.66667H17.6667C18.396 3.66667 19.0955 3.9564 19.6112 4.47212C20.1269 4.98785 20.4167 5.68732 20.4167 6.41667V7.33333H2.08333V6.41667ZM17.6667 20.1667H4.83333C4.10399 20.1667 3.40451 19.8769 2.88879 19.3612C2.37306 18.8455 2.08333 18.146 2.08333 17.4167V9.16667H20.4167V17.4167C20.4167 18.146 20.1269 18.8455 19.6112 19.3612C19.0955 19.8769 18.396 20.1667 17.6667 20.1667Z" fill="#738B96"/>
<path d="M11.25 15.125C12.0094 15.125 12.625 14.5094 12.625 13.75C12.625 12.9906 12.0094 12.375 11.25 12.375C10.4906 12.375 9.875 12.9906 9.875 13.75C9.875 14.5094 10.4906 15.125 11.25 15.125Z" fill="#738B96"/>
<path d="M6.6665 15.125C7.4259 15.125 8.0415 14.5094 8.0415 13.75C8.0415 12.9906 7.4259 12.375 6.6665 12.375C5.90711 12.375 5.2915 12.9906 5.2915 13.75C5.2915 14.5094 5.90711 15.125 6.6665 15.125Z" fill="#738B96"/>
<path d="M15.8335 15.125C16.5929 15.125 17.2085 14.5094 17.2085 13.75C17.2085 12.9906 16.5929 12.375 15.8335 12.375C15.0741 12.375 14.4585 12.9906 14.4585 13.75C14.4585 14.5094 15.0741 15.125 15.8335 15.125Z" fill="#738B96"/>
</g>
<defs>
<clipPath id="clip0_141_552">
<rect width="22" height="22" fill="white" transform="translate(0.25)"/>
</clipPath>
</defs>
</svg>
