<svg width="48" height="48" viewBox="0 0 48 48" fill="none" xmlns="http://www.w3.org/2000/svg">
<path d="M24 14C22.0222 14 20.0888 14.5865 18.4443 15.6853C16.7998 16.7841 15.5181 18.3459 14.7612 20.1732C14.0043 22.0004 13.8063 24.0111 14.1922 25.9509C14.578 27.8907 15.5304 29.6725 16.9289 31.0711C18.3275 32.4696 20.1093 33.422 22.0491 33.8078C23.9889 34.1937 25.9996 33.9957 27.8268 33.2388C29.6541 32.4819 31.2159 31.2002 32.3147 29.5557C33.4135 27.9112 34 25.9778 34 24C33.9971 21.3487 32.9426 18.8068 31.0679 16.9321C29.1932 15.0574 26.6513 14.0029 24 14V14ZM24 32.3333C22.3518 32.3333 20.7407 31.8446 19.3703 30.9289C17.9998 30.0132 16.9317 28.7117 16.301 27.189C15.6703 25.6663 15.5053 23.9908 15.8268 22.3742C16.1483 20.7577 16.942 19.2729 18.1074 18.1074C19.2729 16.942 20.7577 16.1483 22.3743 15.8268C23.9908 15.5052 25.6663 15.6703 27.189 16.301C28.7117 16.9317 30.0132 17.9998 30.9289 19.3702C31.8446 20.7407 32.3333 22.3518 32.3333 24C32.3309 26.2094 31.4522 28.3276 29.8899 29.8899C28.3276 31.4522 26.2094 32.3309 24 32.3333Z" fill="#7B8D95"/>
<path d="M24.5126 19.0463C24.1008 18.9712 23.6776 18.9876 23.2729 19.0943C22.8682 19.2009 22.4918 19.3952 22.1705 19.6634C21.8492 19.9316 21.5907 20.2671 21.4134 20.6462C21.2361 21.0254 21.1443 21.4388 21.1445 21.8574C21.1445 22.0467 21.2198 22.2283 21.3537 22.3623C21.4876 22.4962 21.6692 22.5714 21.8586 22.5714C22.0479 22.5714 22.2295 22.4962 22.3634 22.3623C22.4973 22.2283 22.5726 22.0467 22.5726 21.8574C22.5724 21.6473 22.6186 21.4397 22.7078 21.2496C22.797 21.0594 22.9271 20.8912 23.0888 20.7571C23.2505 20.6229 23.4398 20.5261 23.6432 20.4735C23.8466 20.421 24.0591 20.4139 24.2655 20.4529C24.5476 20.5076 24.8069 20.6452 25.0104 20.8481C25.2139 21.0509 25.3523 21.3099 25.4079 21.5917C25.4641 21.8876 25.4253 22.1937 25.2971 22.4662C25.1689 22.7387 24.9577 22.9637 24.6939 23.109C24.2571 23.3621 23.8961 23.7278 23.6485 24.1678C23.401 24.6078 23.276 25.1062 23.2866 25.611V26.1415C23.2866 26.3309 23.3618 26.5125 23.4957 26.6464C23.6296 26.7803 23.8112 26.8555 24.0006 26.8555C24.19 26.8555 24.3716 26.7803 24.5055 26.6464C24.6394 26.5125 24.7146 26.3309 24.7146 26.1415V25.611C24.7057 25.3625 24.7623 25.1161 24.8789 24.8964C24.9955 24.6768 25.1679 24.4918 25.3787 24.36C25.896 24.0759 26.3126 23.6385 26.5711 23.1079C26.8297 22.5773 26.9176 21.9797 26.8226 21.3972C26.7277 20.8147 26.4546 20.2759 26.0409 19.8549C25.6273 19.4339 25.0933 19.1514 24.5126 19.0463Z" fill="#7B8D95"/>
<path d="M24.7147 28.2836C24.7147 27.8893 24.395 27.5696 24.0006 27.5696C23.6063 27.5696 23.2866 27.8893 23.2866 28.2836C23.2866 28.678 23.6063 28.9976 24.0006 28.9976C24.395 28.9976 24.7147 28.678 24.7147 28.2836Z" fill="#7B8D95"/>
</svg>
