<svg width="10" height="10" viewBox="0 0 10 10" fill="none" xmlns="http://www.w3.org/2000/svg">
<path d="M8.25664 9.18327C8.40605 9.64513 7.87595 10.0275 7.48481 9.74005L5.29627 8.13154C5.1201 8.00206 4.88023 8.00206 4.70405 8.13155L2.51552 9.74005C2.12437 10.0275 1.59428 9.64513 1.74368 9.18327L2.58883 6.5706C2.65527 6.3652 2.58238 6.14036 2.40808 6.013L0.20549 4.40363C-0.185044 4.11828 0.0167971 3.49991 0.500472 3.49991H3.211C3.42828 3.49991 3.62069 3.35959 3.68709 3.15269L4.52408 0.544486C4.67264 0.0815248 5.32768 0.0815257 5.47625 0.544487L6.31324 3.15269C6.37963 3.35959 6.57204 3.49991 6.78932 3.49991H9.49952C9.98318 3.49991 10.185 4.11824 9.79453 4.40361L7.59221 6.01299C7.41793 6.14036 7.34505 6.36519 7.41149 6.57058L8.25664 9.18327Z" fill="#EDEFF0"/>
</svg>
