<svg width="25" height="24" viewBox="0 0 25 24" fill="none" xmlns="http://www.w3.org/2000/svg">
<g clip-path="url(#clip0_106_7246)">
<path d="M20.4499 5.53603L16.9639 2.05002C16.3155 1.3981 15.5442 0.881248 14.6948 0.529368C13.8453 0.177488 12.9344 -0.00243056 12.0149 2.47962e-05H7.49994C6.17434 0.00161265 4.9035 0.528907 3.96616 1.46624C3.02882 2.40358 2.50153 3.67443 2.49994 5.00003V19C2.50153 20.3256 3.02882 21.5965 3.96616 22.5338C4.9035 23.4711 6.17434 23.9984 7.49994 24H17.4999C18.8255 23.9984 20.0964 23.4711 21.0337 22.5338C21.9711 21.5965 22.4984 20.3256 22.4999 19V10.485C22.5024 9.56554 22.3225 8.6547 21.9706 7.80521C21.6187 6.95572 21.1019 6.18445 20.4499 5.53603ZM19.0359 6.95003C19.341 7.26443 19.6036 7.61744 19.8169 8.00003H15.4999C15.2347 8.00003 14.9804 7.89467 14.7928 7.70713C14.6053 7.5196 14.4999 7.26524 14.4999 7.00003V2.68303C14.8825 2.89641 15.2355 3.15898 15.5499 3.46403L19.0359 6.95003ZM20.4999 19C20.4999 19.7957 20.1839 20.5587 19.6213 21.1213C19.0587 21.684 18.2956 22 17.4999 22H7.49994C6.70429 22 5.94123 21.684 5.37862 21.1213C4.81601 20.5587 4.49994 19.7957 4.49994 19V5.00003C4.49994 4.20438 4.81601 3.44131 5.37862 2.8787C5.94123 2.3161 6.70429 2.00003 7.49994 2.00003H12.0149C12.1799 2.00003 12.3379 2.03202 12.4999 2.04702V7.00003C12.4999 7.79568 12.816 8.55874 13.3786 9.12135C13.9412 9.68396 14.7043 10 15.4999 10H20.4529C20.4679 10.162 20.4999 10.32 20.4999 10.485V19ZM17.2239 13.311C17.4065 13.5031 17.5054 13.7598 17.4989 14.0248C17.4923 14.2897 17.3808 14.5412 17.1889 14.724L13.5999 18.138C13.0358 18.6933 12.275 19.0031 11.4834 18.9999C10.6919 18.9967 9.93361 18.6808 9.37394 18.121L7.83394 16.747C7.63582 16.5704 7.51599 16.3223 7.5008 16.0573C7.49328 15.9261 7.51167 15.7947 7.55493 15.6706C7.5982 15.5465 7.66548 15.4321 7.75294 15.334C7.8404 15.2359 7.94633 15.156 8.06467 15.0989C8.18301 15.0417 8.31145 15.0084 8.44266 15.0009C8.70765 14.9857 8.96782 15.0764 9.16594 15.253L10.7509 16.667C10.8417 16.7689 10.9523 16.8512 11.076 16.9087C11.1997 16.9663 11.3339 16.9979 11.4703 17.0016C11.6067 17.0054 11.7424 16.9812 11.8691 16.9305C11.9958 16.8798 12.1107 16.8038 12.2069 16.707L15.8069 13.276C15.9021 13.185 16.0144 13.1137 16.1372 13.0662C16.26 13.0186 16.391 12.9959 16.5227 12.9991C16.6544 13.0024 16.7841 13.0316 16.9044 13.0851C17.0248 13.1386 17.1334 13.2154 17.2239 13.311Z" fill="#22BCFF"/>
</g>
<defs>
<clipPath id="clip0_106_7246">
<rect width="24" height="24" fill="white" transform="translate(0.5)"/>
</clipPath>
</defs>
</svg>
